<svg width="24" height="24" viewBox="0 0 24 24" fill="none" xmlns="http://www.w3.org/2000/svg">
<path d="M0.627441 0.130943C0.21994 0.332352 0.00916352 0.697699 0.00916352 1.18951C0.00916352 1.38155 0.041951 1.55954 0.107526 1.69537C0.177785 1.85931 1.31598 3.02092 5.24579 6.95073L10.2904 12L5.22705 17.068C-0.398337 22.7028 -0.01894 22.2765 0.0185314 22.9042C0.0513188 23.5365 0.463504 23.9487 1.09583 23.9815C1.72348 24.0189 1.29724 24.3983 6.932 18.7729L12 13.7096L17.0727 18.7729C22.7028 24.3983 22.2765 24.0189 22.9042 23.9815C23.5365 23.9487 23.9487 23.5365 23.9815 22.9042C24.0189 22.2765 24.3983 22.7028 18.7729 17.0727L13.7096 12L18.7729 6.92731C24.3983 1.29724 24.0189 1.72348 23.9815 1.09583C23.9487 0.463503 23.5365 0.0513172 22.9042 0.0185299C22.2765 -0.0189419 22.7028 -0.398338 17.068 5.22705L12 10.2904L6.95073 5.24579C3.02092 1.31598 1.85931 0.177784 1.69537 0.107525C1.38155 -0.0376778 0.941264 -0.0236263 0.627441 0.130943Z"/>
</svg>
