<svg width="24" height="24" viewBox="0 0 24 24" fill="none" xmlns="http://www.w3.org/2000/svg">
<path d="M21.808 0.0612221C21.7189 0.0889111 20.6309 0.570705 19.3929 1.13003C18.1502 1.68936 13.5076 3.78268 9.07129 5.78185C4.63501 7.78103 0.902154 9.48116 0.780227 9.56423C0.480098 9.75805 0.198727 10.0848 0.0861788 10.3672C-0.0263695 10.6718 -0.0310591 11.1924 0.0861788 11.4859C0.203417 11.7905 0.592646 12.1892 0.94436 12.3664C1.10849 12.4495 2.19646 12.8371 3.36884 13.2303C4.53653 13.6235 5.50257 13.9558 5.50726 13.9613C5.51195 13.9724 6.03717 15.7445 6.67494 17.9098C7.31272 20.0696 7.89422 21.9635 7.95987 22.1131C8.1709 22.5727 8.45696 22.8994 8.84619 23.1265C9.16977 23.3148 9.23073 23.3314 9.60589 23.3314C10.0842 23.3314 10.4266 23.204 10.797 22.8884C10.933 22.7721 11.6271 22.0411 12.3446 21.2658C13.0621 20.4849 13.6623 19.8425 13.6811 19.837C13.6998 19.8259 14.5908 20.6566 15.6601 21.6756C17.0059 22.9604 17.7094 23.5917 17.9345 23.7246C18.7317 24.1953 19.5383 24.0569 20.0963 23.3535C20.5325 22.8053 20.434 23.2982 22.3004 12.4162C23.998 2.54219 24.0121 2.45359 23.998 1.87765C23.9839 1.34047 23.9699 1.26848 23.8198 0.947283C23.515 0.277199 23.0789 -0.0107708 22.3754 0.000305176C22.1503 0.000305176 21.8924 0.0279942 21.808 0.0612221ZM22.5536 2.01056C22.5536 2.29299 19.2569 21.5759 19.149 21.9137C19.1068 22.0466 19.0224 22.1906 18.9615 22.2404C18.8536 22.318 18.8349 22.318 18.6238 22.1961C18.5019 22.1241 16.8746 20.6068 15.0035 18.8291C13.1324 17.0514 11.5989 15.595 11.5989 15.5894C11.5942 15.5839 13.2496 13.5017 15.2802 10.9487C17.3154 8.40127 19.0037 6.2415 19.0365 6.14735C19.1209 5.89815 19.074 5.51604 18.924 5.28898C18.7833 5.06193 18.5394 4.95671 18.2674 4.99547C18.1361 5.01209 17.1091 5.60464 15.0035 6.87282C7.28927 11.5357 6.03717 12.2889 5.98559 12.2889C5.90118 12.2944 1.87288 10.9376 1.87288 10.9044C1.87288 10.8878 4.31612 9.77466 7.30334 8.42896C10.2859 7.08326 14.8394 5.0287 17.4186 3.86575C19.9979 2.70279 22.1738 1.73366 22.2488 1.71151C22.4692 1.65059 22.5536 1.73366 22.5536 2.01056ZM14.7597 9.06028C14.694 9.14888 13.5826 10.55 12.2836 12.1781C10.9893 13.8007 9.89664 15.2129 9.86381 15.307C9.8263 15.3956 9.59651 16.4423 9.35266 17.6329C9.10411 18.818 8.88839 19.837 8.86964 19.8924C8.84619 19.9533 8.53199 18.962 7.89891 16.8188C7.38775 15.08 6.98445 13.6456 7.0079 13.6346C7.03604 13.6235 8.80867 12.5602 10.9471 11.2644C13.0902 9.97403 14.8488 8.91629 14.8581 8.91076C14.8722 8.91076 14.8253 8.97721 14.7597 9.06028ZM11.7349 17.943C12.1523 18.3362 12.4993 18.6796 12.504 18.7017C12.5087 18.7239 11.96 19.3386 11.2894 20.064C10.6188 20.7895 10.0795 21.3378 10.0936 21.2824C10.1077 21.227 10.3046 20.2856 10.5297 19.1946C10.7595 18.1092 10.9518 17.2176 10.9612 17.2176C10.9705 17.2176 11.3176 17.5443 11.7349 17.943Z"/>
</svg>
