<svg width="24" height="24" viewBox="0 0 24 24" fill="none" xmlns="http://www.w3.org/2000/svg">
<path d="M10.6172 0.0337505C7.0875 0.456125 3.95625 2.38028 1.9875 5.34159C0.904688 6.96539 0.239063 8.82853 0.0421875 10.7949C-0.028125 11.4989 0.0140625 13.1649 0.117188 13.8032C0.360938 15.3472 0.84375 16.7129 1.61719 18.0645L1.88438 18.5244L0.942188 21.2229C0.421875 22.7106 0 23.9449 0 23.9683C0 23.9965 2.46563 24.0059 6.71719 23.9965L13.4297 23.9824L14.0859 23.8604C16.6734 23.3723 18.8203 22.2225 20.625 20.3688C22.4766 18.4634 23.6063 16.1075 23.9297 13.4981C24.0234 12.7332 24.0234 11.2595 23.9297 10.4946C23.7281 8.852 23.1375 7.14373 22.2891 5.75458C21.3469 4.20588 19.8141 2.66186 18.2531 1.70448C17.0109 0.944202 15.5719 0.404501 14.0625 0.136997C13.4719 0.0337505 13.2234 0.0149784 12.1875 0.000898361C11.5312 -0.00379372 10.8234 0.0102844 10.6172 0.0337505ZM13.4297 1.99545C14.5313 2.1597 15.3938 2.42721 16.4297 2.93406C18.4359 3.9196 19.9781 5.43546 20.9953 7.4347C21.4641 8.36392 21.7641 9.2556 21.9703 10.3538C22.0875 10.992 22.0875 13.0007 21.9703 13.6389C21.4313 16.5251 19.8891 18.8857 17.5078 20.4579C16.6406 21.0305 15.2953 21.6077 14.2734 21.8424C13.2281 22.0864 13.1484 22.0864 7.73438 22.077L2.69531 22.0629L3.36094 20.1435L4.03125 18.2287L3.65156 17.6562C2.50781 15.9432 1.92656 14.0519 1.92188 12.0339C1.91719 9.30722 2.9625 6.78236 4.875 4.8629C6.43125 3.30481 8.49844 2.27234 10.6453 1.98137C11.3859 1.88281 12.6938 1.88751 13.4297 1.99545Z"/>
<path d="M7.8896 5.12094C6.62398 5.46353 5.57867 6.7729 5.19898 8.49055C5.05835 9.11942 5.02554 10.532 5.12867 11.1984C5.39585 12.8926 6.38023 14.554 8.09117 16.22C9.64273 17.7265 11.1709 18.5994 12.7224 18.8716C13.2662 18.9654 14.4427 18.9654 15.0802 18.8669C17.5224 18.5055 19.1349 16.9334 18.9334 15.1171C18.8349 14.2348 18.3802 13.6154 17.424 13.071C16.7021 12.6627 16.2568 12.4796 15.8349 12.4139C15.1177 12.306 14.5787 12.5031 14.0302 13.0663L13.688 13.4136L13.3787 13.2681C12.2115 12.719 11.2599 11.7335 10.7162 10.5086L10.6271 10.3068L10.9459 9.97356C11.1427 9.76237 11.3162 9.51833 11.4099 9.32592C11.5459 9.03495 11.5552 8.98802 11.5505 8.47647C11.5505 7.82414 11.4568 7.53786 10.9787 6.66965C10.4771 5.76858 9.90523 5.26643 9.18804 5.10217C8.89273 5.03177 8.18023 5.04585 7.8896 5.12094ZM8.91148 7.07325C9.09898 7.20466 9.64742 8.21366 9.6521 8.43893C9.65679 8.48586 9.45054 8.73928 9.20211 9.0021C8.95367 9.2696 8.6771 9.56057 8.59273 9.64974L8.44273 9.81399L8.55523 10.2129C9.28648 12.8129 11.2084 14.7464 13.7818 15.4738L14.274 15.6146L14.9068 14.9529L15.5396 14.2959L15.7974 14.4038C16.2052 14.5774 16.8334 14.9623 16.9365 15.0984C16.9927 15.1782 17.0255 15.2955 17.0255 15.4128C17.0162 15.9807 16.2662 16.6048 15.2537 16.8864C14.9302 16.9756 14.7615 16.9897 13.9459 16.9897C13.0552 16.9897 12.9896 16.985 12.5912 16.863C11.4755 16.5157 10.388 15.7929 9.23492 14.6291C8.06773 13.4558 7.39742 12.3811 7.09742 11.2125C6.98492 10.7855 6.98023 10.6963 6.99898 9.95479C7.0271 9.04433 7.12085 8.57972 7.38335 8.02594C7.56617 7.6458 7.94585 7.20466 8.19898 7.06856C8.42867 6.94654 8.73804 6.94654 8.91148 7.07325Z"/>
</svg>
