<svg width="58" height="58" viewBox="0 0 58 58" fill="none" xmlns="http://www.w3.org/2000/svg">
<path d="M3.20968 3.20969C3 3.41937 3 3.55566 3 14.742C3 25.9282 3 26.0645 3.20968 26.2742C3.41935 26.4839 3.55565 26.4839 14.7419 26.4839C25.9282 26.4839 26.0645 26.4839 26.2742 26.2742C26.4839 26.0645 26.4839 25.9282 26.4839 14.742C26.4839 3.55566 26.4839 3.41937 26.2742 3.20969C26.0645 3.00002 25.9282 3.00002 14.7419 3.00002C3.55565 3.00002 3.41935 3.00002 3.20968 3.20969ZM9.70968 8.66131C9.70968 12.5089 9.72016 12.6557 9.91935 12.8549C10.2653 13.2008 10.7476 13.117 12.8024 12.2887L14.7419 11.5129L16.6815 12.2887C18.7363 13.117 19.2185 13.2008 19.5645 12.8549C19.7637 12.6557 19.7742 12.5089 19.7742 8.66131V4.67744H22.2903H24.8064V14.742V24.8065H14.7419H4.67742V14.742V4.67744H7.19355H9.70968V8.66131ZM18.0968 7.77018C18.0968 9.46856 18.0548 10.8629 18.0129 10.8629C17.971 10.8629 17.2895 10.6008 16.4927 10.2863C15.7065 9.97179 14.9202 9.70969 14.7419 9.70969C14.5637 9.70969 13.7774 9.97179 12.9911 10.2863C12.1944 10.6008 11.5129 10.8629 11.471 10.8629C11.429 10.8629 11.3871 9.46856 11.3871 7.77018V4.67744H14.7419H18.0968V7.77018Z" fill="#083A7F"/>
<path d="M31.7253 3.20969C31.5156 3.41937 31.5156 3.55566 31.5156 14.742C31.5156 25.9282 31.5156 26.0645 31.7253 26.2742C31.935 26.4839 32.0713 26.4839 43.2576 26.4839C54.4438 26.4839 54.5801 26.4839 54.7898 26.2742C54.9995 26.0645 54.9995 25.9282 54.9995 14.742C54.9995 3.55566 54.9995 3.41937 54.7898 3.20969C54.5801 3.00002 54.4438 3.00002 43.2576 3.00002C32.0713 3.00002 31.935 3.00002 31.7253 3.20969ZM38.2253 8.66131C38.2253 12.5089 38.2358 12.6557 38.435 12.8549C38.7809 13.2008 39.2632 13.117 41.318 12.2887L43.2576 11.5129L45.1971 12.2887C47.2519 13.117 47.7342 13.2008 48.0801 12.8549C48.2793 12.6557 48.2898 12.5089 48.2898 8.66131V4.67744H50.8059H53.3221V14.742V24.8065H43.2576H33.193V14.742V4.67744H35.7092H38.2253V8.66131ZM46.6124 7.77018C46.6124 9.46856 46.5705 10.8629 46.5285 10.8629C46.4866 10.8629 45.8051 10.6008 45.0084 10.2863C44.2221 9.97179 43.4358 9.70969 43.2576 9.70969C43.0793 9.70969 42.293 9.97179 41.5068 10.2863C40.71 10.6008 40.0285 10.8629 39.9866 10.8629C39.9447 10.8629 39.9027 9.46856 39.9027 7.77018V4.67744H43.2576H46.6124V7.77018Z" fill="#083A7F"/>
<path d="M3.20968 31.7258C3 31.9355 3 32.0718 3 43.2581C3 54.4444 3 54.5806 3.20968 54.7903C3.41935 55 3.55565 55 14.7419 55C25.9282 55 26.0645 55 26.2742 54.7903C26.4839 54.5806 26.4839 54.4444 26.4839 43.2581C26.4839 32.0718 26.4839 31.9355 26.2742 31.7258C26.0645 31.5161 25.9282 31.5161 14.7419 31.5161C3.55565 31.5161 3.41935 31.5161 3.20968 31.7258ZM9.70968 37.1774C9.70968 41.025 9.72016 41.1718 9.91935 41.371C10.2653 41.7169 10.7476 41.6331 12.8024 40.8048L14.7419 40.029L16.6815 40.8048C18.7363 41.6331 19.2185 41.7169 19.5645 41.371C19.7637 41.1718 19.7742 41.025 19.7742 37.1774V33.1936H22.2903H24.8064V43.2581V53.3226H14.7419H4.67742V43.2581V33.1936H7.19355H9.70968V37.1774ZM18.0968 36.2863C18.0968 37.9847 18.0548 39.379 18.0129 39.379C17.971 39.379 17.2895 39.1169 16.4927 38.8024C15.7065 38.4879 14.9202 38.2258 14.7419 38.2258C14.5637 38.2258 13.7774 38.4879 12.9911 38.8024C12.1944 39.1169 11.5129 39.379 11.471 39.379C11.429 39.379 11.3871 37.9847 11.3871 36.2863V33.1936H14.7419H18.0968V36.2863Z" fill="#083A7F"/>
<path d="M31.7253 31.7258C31.5156 31.9355 31.5156 32.0718 31.5156 43.2581C31.5156 54.4444 31.5156 54.5806 31.7253 54.7903C31.935 55 32.0713 55 43.2576 55C54.4438 55 54.5801 55 54.7898 54.7903C54.9995 54.5806 54.9995 54.4444 54.9995 43.2581C54.9995 32.0718 54.9995 31.9355 54.7898 31.7258C54.5801 31.5161 54.4438 31.5161 43.2576 31.5161C32.0713 31.5161 31.935 31.5161 31.7253 31.7258ZM38.2253 37.1774C38.2253 41.025 38.2358 41.1718 38.435 41.371C38.7809 41.7169 39.2632 41.6331 41.318 40.8048L43.2576 40.029L45.1971 40.8048C47.2519 41.6331 47.7342 41.7169 48.0801 41.371C48.2793 41.1718 48.2898 41.025 48.2898 37.1774V33.1936H50.8059H53.3221V43.2581V53.3226H43.2576H33.193V43.2581V33.1936H35.7092H38.2253V37.1774ZM46.6124 36.2863C46.6124 37.9847 46.5705 39.379 46.5285 39.379C46.4866 39.379 45.8051 39.1169 45.0084 38.8024C44.2221 38.4879 43.4358 38.2258 43.2576 38.2258C43.0793 38.2258 42.293 38.4879 41.5068 38.8024C40.71 39.1169 40.0285 39.379 39.9866 39.379C39.9447 39.379 39.9027 37.9847 39.9027 36.2863V33.1936H43.2576H46.6124V36.2863Z" fill="#083A7F"/>
</svg>
