<svg width="16" height="16" viewBox="0 0 16 16" fill="none" xmlns="http://www.w3.org/2000/svg">
<g clip-path="url(#clip0_270_2066)">
<path d="M15.3333 14.8149H2C1.82319 14.8149 1.65362 14.7524 1.5286 14.6413C1.40357 14.5302 1.33333 14.3794 1.33333 14.2223V2.37042C1.33333 2.21326 1.2631 2.06253 1.13807 1.9514C1.01305 1.84027 0.843478 1.77783 0.666667 1.77783C0.489856 1.77783 0.320286 1.84027 0.195262 1.9514C0.0702379 2.06253 0 2.21326 0 2.37042L0 14.2223C0 14.6938 0.210714 15.146 0.585786 15.4794C0.960859 15.8128 1.46957 16.0001 2 16.0001H15.3333C15.5101 16.0001 15.6797 15.9376 15.8047 15.8265C15.9298 15.7154 16 15.5646 16 15.4075C16 15.2503 15.9298 15.0996 15.8047 14.9884C15.6797 14.8773 15.5101 14.8149 15.3333 14.8149Z" fill="#083A7F"/>
<path d="M4.66667 13.63C4.84348 13.63 5.01304 13.5675 5.13807 13.4564C5.26309 13.3453 5.33333 13.1945 5.33333 13.0374V8.88922C5.33333 8.73206 5.26309 8.58133 5.13807 8.4702C5.01304 8.35906 4.84348 8.29663 4.66667 8.29663C4.48985 8.29663 4.32029 8.35906 4.19526 8.4702C4.07024 8.58133 4 8.73206 4 8.88922V13.0374C4 13.1945 4.07024 13.3453 4.19526 13.4564C4.32029 13.5675 4.48985 13.63 4.66667 13.63Z" fill="#083A7F"/>
<path d="M7.33317 13.6298C7.50999 13.6298 7.67956 13.5674 7.80458 13.4562C7.92961 13.3451 7.99985 13.1944 7.99985 13.0372V5.92609C7.99985 5.76892 7.92961 5.6182 7.80458 5.50706C7.67956 5.39593 7.50999 5.3335 7.33317 5.3335C7.15636 5.3335 6.98679 5.39593 6.86177 5.50706C6.73674 5.6182 6.6665 5.76892 6.6665 5.92609V13.0372C6.6665 13.1944 6.73674 13.3451 6.86177 13.4562C6.98679 13.5674 7.15636 13.6298 7.33317 13.6298Z" fill="#083A7F"/>
</g>
<path d="M10.6667 8.29671C10.8435 8.29671 11.0131 8.23428 11.1381 8.12315C11.2631 8.01201 11.3333 7.86129 11.3333 7.70412V3.55597C11.3333 3.39881 11.2631 3.24808 11.1381 3.13695C11.0131 3.02581 10.8435 2.96338 10.6667 2.96338C10.4899 2.96338 10.3203 3.02581 10.1953 3.13695C10.0702 3.24808 10 3.39881 10 3.55597V7.70412C10 7.86129 10.0702 8.01201 10.1953 8.12315C10.3203 8.23428 10.4899 8.29671 10.6667 8.29671Z" fill="#083A7F"/>
<path d="M13.3332 8.2963C13.51 8.2963 13.6796 8.23386 13.8046 8.12273C13.9296 8.0116 13.9998 7.86087 13.9998 7.7037V0.592593C13.9998 0.435427 13.9296 0.284699 13.8046 0.173566C13.6796 0.0624338 13.51 0 13.3332 0C13.1564 0 12.9868 0.0624338 12.8618 0.173566C12.7367 0.284699 12.6665 0.435427 12.6665 0.592593V7.7037C12.6665 7.86087 12.7367 8.0116 12.8618 8.12273C12.9868 8.23386 13.1564 8.2963 13.3332 8.2963Z" fill="#083A7F"/>
<path d="M12.1098 13.3651L15.1014 9.94837L15.1023 9.94733L15.102 9.94768C15.1593 9.8829 15.1622 9.79635 15.1269 9.73122C15.0925 9.66772 15.0254 9.62783 14.9509 9.62783H14.5226C14.4229 9.62783 14.3233 9.66877 14.2557 9.74667C14.2556 9.74681 14.2555 9.74696 14.2553 9.7471L11.8426 12.5018L10.7441 11.2475C10.7441 11.2474 10.7441 11.2474 10.7441 11.2474C10.7106 11.2091 10.669 11.1793 10.6231 11.1592C10.5772 11.1391 10.5275 11.1289 10.4776 11.1288H10.4774H10.0491C9.97451 11.1288 9.90728 11.1688 9.87294 11.2325C9.83762 11.2981 9.84114 11.3842 9.89762 11.4488L9.89767 11.4489L11.5759 13.3651L11.576 13.3652C11.7144 13.5231 11.9709 13.5224 12.1094 13.3656L12.1098 13.3651Z" fill="#083A7F" stroke="#083A7F" stroke-width="0.3"/>
<defs>
<clipPath id="clip0_270_2066">
<rect width="16" height="14.2222" fill="white" transform="translate(0 1.77783)"/>
</clipPath>
</defs>
</svg>
