<svg width="16" height="16" viewBox="0 0 16 16" fill="none" xmlns="http://www.w3.org/2000/svg">
<path d="M11.0957 6.68408H10.215C10.1629 6.43077 10.0718 6.20823 9.94155 6.01647C9.81371 5.82471 9.65746 5.66372 9.4728 5.53351C9.29051 5.40094 9.08809 5.30151 8.86556 5.23522C8.64302 5.16893 8.41101 5.13579 8.16953 5.13579C7.72919 5.13579 7.33028 5.24706 6.9728 5.46959C6.61769 5.69213 6.33478 6.02002 6.12408 6.45326C5.91575 6.8865 5.81158 7.41798 5.81158 8.04772C5.81158 8.67745 5.91575 9.20894 6.12408 9.64218C6.33478 10.0754 6.61769 10.4033 6.9728 10.6258C7.33028 10.8484 7.72919 10.9597 8.16953 10.9597C8.41101 10.9597 8.64302 10.9265 8.86556 10.8602C9.08809 10.7939 9.29051 10.6957 9.4728 10.5655C9.65746 10.4329 9.81371 10.2707 9.94155 10.079C10.0718 9.88484 10.1629 9.6623 10.215 9.41135H11.0957C11.0294 9.78304 10.9086 10.1157 10.7335 10.4092C10.5583 10.7028 10.3405 10.9525 10.08 11.1585C9.81963 11.3621 9.52725 11.5172 9.20292 11.6237C8.88095 11.7302 8.53649 11.7835 8.16953 11.7835C7.54927 11.7835 6.99766 11.632 6.5147 11.329C6.03175 11.0259 5.65178 10.5951 5.37479 10.0364C5.0978 9.47764 4.95931 8.81476 4.95931 8.04772C4.95931 7.28067 5.0978 6.61779 5.37479 6.05908C5.65178 5.50037 6.03175 5.0695 6.5147 4.76647C6.99766 4.46344 7.54927 4.31192 8.16953 4.31192C8.53649 4.31192 8.88095 4.36519 9.20292 4.47172C9.52725 4.57826 9.81963 4.73451 10.08 4.94047C10.3405 5.14407 10.5583 5.39265 10.7335 5.68621C10.9086 5.97741 11.0294 6.31003 11.0957 6.68408Z" fill="#EFEFEF"/>
<circle cx="8" cy="8" r="7.5" stroke="#EFEFEF"/>
</svg>
