<svg width="16" height="16" viewBox="0 0 16 16" fill="none" xmlns="http://www.w3.org/2000/svg">
<mask id="path-1-outside-1_443_4272" maskUnits="userSpaceOnUse" x="3.21094" y="2.68408" width="10" height="11" fill="black">
<rect fill="white" x="3.21094" y="2.68408" width="10" height="11"/>
<path d="M11.0957 6.68408H10.215C10.1629 6.43077 10.0718 6.20823 9.94155 6.01647C9.81371 5.82471 9.65746 5.66372 9.4728 5.53351C9.29051 5.40094 9.08809 5.30151 8.86556 5.23522C8.64302 5.16893 8.41101 5.13579 8.16953 5.13579C7.72919 5.13579 7.33028 5.24706 6.9728 5.46959C6.61769 5.69213 6.33478 6.02002 6.12408 6.45326C5.91575 6.8865 5.81158 7.41798 5.81158 8.04772C5.81158 8.67745 5.91575 9.20894 6.12408 9.64218C6.33478 10.0754 6.61769 10.4033 6.9728 10.6258C7.33028 10.8484 7.72919 10.9597 8.16953 10.9597C8.41101 10.9597 8.64302 10.9265 8.86556 10.8602C9.08809 10.7939 9.29051 10.6957 9.4728 10.5655C9.65746 10.4329 9.81371 10.2707 9.94155 10.079C10.0718 9.88484 10.1629 9.6623 10.215 9.41135H11.0957C11.0294 9.78304 10.9086 10.1157 10.7335 10.4092C10.5583 10.7028 10.3405 10.9525 10.08 11.1585C9.81963 11.3621 9.52725 11.5172 9.20292 11.6237C8.88095 11.7302 8.53649 11.7835 8.16953 11.7835C7.54927 11.7835 6.99766 11.632 6.5147 11.329C6.03175 11.0259 5.65178 10.5951 5.37479 10.0364C5.0978 9.47764 4.95931 8.81476 4.95931 8.04772C4.95931 7.28067 5.0978 6.61779 5.37479 6.05908C5.65178 5.50037 6.03175 5.0695 6.5147 4.76647C6.99766 4.46344 7.54927 4.31192 8.16953 4.31192C8.53649 4.31192 8.88095 4.36519 9.20292 4.47172C9.52725 4.57826 9.81963 4.73451 10.08 4.94047C10.3405 5.14407 10.5583 5.39265 10.7335 5.68621C10.9086 5.97741 11.0294 6.31003 11.0957 6.68408Z"/>
</mask>
<path d="M11.0957 6.68408H10.215C10.1629 6.43077 10.0718 6.20823 9.94155 6.01647C9.81371 5.82471 9.65746 5.66372 9.4728 5.53351C9.29051 5.40094 9.08809 5.30151 8.86556 5.23522C8.64302 5.16893 8.41101 5.13579 8.16953 5.13579C7.72919 5.13579 7.33028 5.24706 6.9728 5.46959C6.61769 5.69213 6.33478 6.02002 6.12408 6.45326C5.91575 6.8865 5.81158 7.41798 5.81158 8.04772C5.81158 8.67745 5.91575 9.20894 6.12408 9.64218C6.33478 10.0754 6.61769 10.4033 6.9728 10.6258C7.33028 10.8484 7.72919 10.9597 8.16953 10.9597C8.41101 10.9597 8.64302 10.9265 8.86556 10.8602C9.08809 10.7939 9.29051 10.6957 9.4728 10.5655C9.65746 10.4329 9.81371 10.2707 9.94155 10.079C10.0718 9.88484 10.1629 9.6623 10.215 9.41135H11.0957C11.0294 9.78304 10.9086 10.1157 10.7335 10.4092C10.5583 10.7028 10.3405 10.9525 10.08 11.1585C9.81963 11.3621 9.52725 11.5172 9.20292 11.6237C8.88095 11.7302 8.53649 11.7835 8.16953 11.7835C7.54927 11.7835 6.99766 11.632 6.5147 11.329C6.03175 11.0259 5.65178 10.5951 5.37479 10.0364C5.0978 9.47764 4.95931 8.81476 4.95931 8.04772C4.95931 7.28067 5.0978 6.61779 5.37479 6.05908C5.65178 5.50037 6.03175 5.0695 6.5147 4.76647C6.99766 4.46344 7.54927 4.31192 8.16953 4.31192C8.53649 4.31192 8.88095 4.36519 9.20292 4.47172C9.52725 4.57826 9.81963 4.73451 10.08 4.94047C10.3405 5.14407 10.5583 5.39265 10.7335 5.68621C10.9086 5.97741 11.0294 6.31003 11.0957 6.68408Z" fill="white"/>
<path d="M11.0957 6.68408V7.68408H12.2885L12.0803 6.50959L11.0957 6.68408ZM10.215 6.68408L9.23548 6.88548L9.39968 7.68408H10.215V6.68408ZM9.94155 6.01647L9.10947 6.57119L9.11425 6.57822L9.94155 6.01647ZM9.4728 5.53351L8.88463 6.34225L8.89055 6.34655L8.89653 6.35077L9.4728 5.53351ZM8.86556 5.23522L8.58008 6.1936L8.86556 5.23522ZM6.9728 5.46959L6.44432 4.62065L6.44179 4.62223L6.9728 5.46959ZM6.12408 6.45326L5.22478 6.0159L5.22286 6.01989L6.12408 6.45326ZM6.12408 9.64218L5.22286 10.0756L5.22479 10.0795L6.12408 9.64218ZM6.9728 10.6258L6.44178 11.4732L6.44432 11.4748L6.9728 10.6258ZM8.86556 10.8602L8.58008 9.90183H8.58008L8.86556 10.8602ZM9.4728 10.5655L10.054 11.3792L10.056 11.3778L9.4728 10.5655ZM9.94155 10.079L9.11106 9.52193L9.1095 9.52427L9.94155 10.079ZM10.215 9.41136V8.41135H9.40123L9.23586 9.20814L10.215 9.41136ZM11.0957 9.41136L12.0801 9.58693L12.2898 8.41135H11.0957V9.41136ZM10.7335 10.4092L9.87474 9.89677H9.87474L10.7335 10.4092ZM10.08 11.1585L10.696 11.9463L10.7004 11.9428L10.08 11.1585ZM9.20292 11.6237L8.89085 10.6736L8.88878 10.6743L9.20292 11.6237ZM6.5147 11.329L5.98321 12.176L6.5147 11.329ZM5.37479 10.0364L6.27073 9.59218V9.59218L5.37479 10.0364ZM5.37479 6.05908L4.47885 5.61491L5.37479 6.05908ZM9.20292 4.47172L8.88878 5.42111L8.89085 5.42178L9.20292 4.47172ZM10.08 4.94047L9.4597 5.72482L9.46412 5.72828L10.08 4.94047ZM10.7335 5.68621L9.87474 6.19867L9.87658 6.20173L10.7335 5.68621ZM11.0957 5.68408H10.215V7.68408H11.0957V5.68408ZM11.1945 6.48269C11.119 6.11533 10.9811 5.76734 10.7689 5.45472L9.11425 6.57822C9.16239 6.64912 9.20684 6.74621 9.23548 6.88548L11.1945 6.48269ZM10.7736 5.46177C10.5788 5.16957 10.3365 4.91891 10.0491 4.71626L8.89653 6.35077C8.97844 6.40853 9.04862 6.47985 9.1095 6.57117L10.7736 5.46177ZM10.061 4.72478C9.78423 4.52351 9.4789 4.3745 9.15103 4.27683L8.58008 6.1936C8.69729 6.22852 8.79679 6.27836 8.88463 6.34225L10.061 4.72478ZM9.15103 4.27683C8.8322 4.18186 8.5038 4.13579 8.16953 4.13579V6.13579C8.31823 6.13579 8.45384 6.156 8.58008 6.1936L9.15103 4.27683ZM8.16953 4.13579C7.55134 4.13579 6.96783 4.29475 6.44432 4.62065L7.50128 6.31854C7.69274 6.19936 7.90705 6.13579 8.16953 6.13579V4.13579ZM6.44179 4.62223C5.90531 4.95842 5.50491 5.43993 5.22479 6.0159L7.02337 6.89062C7.16465 6.6001 7.33006 6.42584 7.50382 6.31696L6.44179 4.62223ZM5.22286 6.01989C4.93261 6.62349 4.81158 7.31256 4.81158 8.04772H6.81158C6.81158 7.52341 6.89889 7.1495 7.0253 6.88663L5.22286 6.01989ZM4.81158 8.04772C4.81158 8.78288 4.93261 9.47194 5.22286 10.0756L7.0253 9.20881C6.89889 8.94594 6.81158 8.57203 6.81158 8.04772H4.81158ZM5.22479 10.0795C5.50491 10.6555 5.90531 11.137 6.44179 11.4732L7.50382 9.77848C7.33006 9.66959 7.16465 9.49533 7.02337 9.20482L5.22479 10.0795ZM6.44432 11.4748C6.96783 11.8007 7.55134 11.9597 8.16953 11.9597V9.95965C7.90705 9.95965 7.69274 9.89608 7.50128 9.7769L6.44432 11.4748ZM8.16953 11.9597C8.5038 11.9597 8.8322 11.9136 9.15103 11.8186L8.58008 9.90183C8.45384 9.93944 8.31823 9.95965 8.16953 9.95965V11.9597ZM9.15103 11.8186C9.47556 11.7219 9.77857 11.576 10.054 11.3792L8.89156 9.75174C8.80245 9.81539 8.70063 9.86592 8.58008 9.90183L9.15103 11.8186ZM10.056 11.3778C10.3398 11.174 10.5799 10.9242 10.7736 10.6337L9.1095 9.52427C9.04748 9.61729 8.9751 9.69176 8.88959 9.75315L10.056 11.3778ZM10.772 10.636C10.9808 10.3247 11.1183 9.97971 11.1941 9.61457L9.23586 9.20814C9.20747 9.34489 9.16269 9.44495 9.11106 9.52193L10.772 10.636ZM10.215 10.4114H11.0957V8.41135H10.215V10.4114ZM10.1112 9.23578C10.0639 9.50089 9.98186 9.71727 9.87474 9.89677L11.5922 10.9217C11.8354 10.5141 11.9948 10.0652 12.0801 9.58693L10.1112 9.23578ZM9.87474 9.89677C9.75995 10.0891 9.62197 10.2458 9.45971 10.3742L10.7004 11.9428C11.059 11.6593 11.3566 11.3165 11.5922 10.9217L9.87474 9.89677ZM9.46412 10.3707C9.29783 10.5007 9.10893 10.602 8.89085 10.6737L9.51498 12.5738C9.94557 12.4323 10.3414 12.2235 10.696 11.9463L9.46412 10.3707ZM8.88878 10.6743C8.67613 10.7447 8.43848 10.7835 8.16953 10.7835V12.7835C8.63449 12.7835 9.08576 12.7158 9.51705 12.5731L8.88878 10.6743ZM8.16953 10.7835C7.72013 10.7835 7.35595 10.6763 7.0462 10.4819L5.98321 12.176C6.63937 12.5877 7.37841 12.7835 8.16953 12.7835V10.7835ZM7.0462 10.4819C6.73407 10.2861 6.47369 10.0016 6.27073 9.59218L4.47885 10.4805C4.82986 11.1886 5.32943 11.7658 5.98321 12.176L7.0462 10.4819ZM6.27073 9.59218C6.07612 9.19964 5.95931 8.69545 5.95931 8.04772H3.95931C3.95931 8.93407 4.11948 9.75564 4.47885 10.4805L6.27073 9.59218ZM5.95931 8.04772C5.95931 7.39998 6.07612 6.89579 6.27073 6.50326L4.47885 5.61491C4.11948 6.33979 3.95931 7.16136 3.95931 8.04772H5.95931ZM6.27073 6.50326C6.47369 6.09386 6.73407 5.80937 7.0462 5.61353L5.98321 3.9194C5.32943 4.32962 4.82986 4.90688 4.47885 5.61491L6.27073 6.50326ZM7.0462 5.61353C7.35595 5.41918 7.72013 5.31192 8.16953 5.31192V3.31192C7.37841 3.31192 6.63937 3.5077 5.98321 3.9194L7.0462 5.61353ZM8.16953 5.31192C8.43848 5.31192 8.67613 5.35074 8.88878 5.4211L9.51705 3.52234C9.08576 3.37964 8.63449 3.31192 8.16953 3.31192V5.31192ZM8.89085 5.42178C9.10669 5.49268 9.29412 5.59384 9.45971 5.72481L10.7004 4.15614C10.3451 3.87518 9.94782 3.66384 9.51498 3.52166L8.89085 5.42178ZM9.46412 5.72828C9.62399 5.85326 9.7606 6.0074 9.87474 6.19867L11.5922 5.17376C11.3559 4.7779 11.0569 4.43488 10.696 4.15267L9.46412 5.72828ZM9.87658 6.20173C9.98166 6.37639 10.0636 6.59092 10.111 6.85858L12.0803 6.50959C11.9952 6.02914 11.8356 5.57842 11.5903 5.17069L9.87658 6.20173Z" fill="#282739" mask="url(#path-1-outside-1_443_4272)"/>
<circle cx="8" cy="8" r="7.5" stroke="#282739"/>
</svg>
