<svg width="58" height="58" viewBox="0 0 58 58" fill="none" xmlns="http://www.w3.org/2000/svg">
<path d="M31.9727 0.172913C31.6102 0.422178 31.4742 0.830067 31.6215 1.20396C31.6781 1.38525 32.5392 2.32566 33.5136 3.30006L35.2925 5.09023H21.1523H7.01221L6.74029 5.37349L6.45703 5.64542V12.7381V19.8309L6.74029 20.1028C7.08019 20.454 7.56739 20.4654 7.97528 20.1481L8.26987 19.9215V13.4633V7.01637H21.7755H35.2925L33.4683 8.85187C32.4599 9.87159 31.6102 10.7893 31.5762 10.8913C31.4855 11.1632 31.7008 11.7524 31.9501 11.8884C32.0634 11.9564 32.324 12.0017 32.5279 12.0017C32.8678 12.0017 33.1851 11.7184 35.655 9.24843C37.1733 7.74151 38.4423 6.39321 38.4763 6.25725C38.5103 6.12129 38.5103 5.89468 38.4649 5.74739C38.363 5.44147 33.389 0.388187 32.9471 0.150251C32.5506 -0.0536919 32.29 -0.0536919 31.9727 0.172913Z" fill="#083A7F"/>
<path d="M47.6329 0.161678C44.7777 0.671539 42.2963 2.65433 41.1973 5.29428C39.9963 8.1495 40.4042 11.3786 42.6249 16.7038C43.7579 19.4344 46.058 23.8985 47.9728 27.0936C48.562 28.0794 48.6639 28.1927 49.0265 28.2607C49.763 28.3966 50.0576 28.0114 52.1536 24.2384C54.8502 19.3778 57.0143 14.2905 57.7281 11.1407C58 9.951 58.034 9.63376 57.9774 8.3761C57.8867 5.96276 57.1616 4.34254 55.4168 2.58635C53.3207 0.490255 50.5447 -0.370842 47.6329 0.161678ZM50.9073 2.09915C52.9354 2.62034 54.567 3.9913 55.4507 5.89478C56.4251 8.0022 56.2778 10.0756 54.8616 13.9279C54.2157 15.6728 53.1507 18.0974 52.1197 20.1595C51.4398 21.5305 49.2871 25.4848 49.2304 25.4848C49.1511 25.4848 47.1117 21.7231 46.2279 19.9443C43.1008 13.7013 41.9791 9.8377 42.5343 7.32239C42.7609 6.314 43.3161 5.13565 43.9279 4.41052C44.823 3.32281 46.2506 2.4164 47.5649 2.09915C48.4487 1.87255 50.0689 1.88387 50.9073 2.09915Z" fill="#083A7F"/>
<path d="M47.8581 3.88924C46.3059 4.41043 45.2069 5.45282 44.6403 6.99373C44.3458 7.76418 44.3118 9.08982 44.561 9.92826C45.6147 13.452 50.0789 14.5963 52.6621 12.0017C55.0528 9.58835 54.3164 5.61144 51.2119 4.13851C50.5774 3.84392 50.3281 3.78727 49.399 3.76461C48.7306 3.75328 48.1527 3.7986 47.8581 3.88924ZM50.0675 5.72474C51.2232 6.06465 52.2316 7.35629 52.2316 8.50065C52.2316 10.1209 51.0419 11.4012 49.4104 11.5258C48.7985 11.5598 48.5493 11.5258 48.0621 11.3219C47.0197 10.8687 46.2266 9.69032 46.2266 8.59129C46.2266 7.42428 47.1557 6.15529 48.2887 5.75873C49.0365 5.49814 49.3084 5.49814 50.0675 5.72474Z" fill="#083A7F"/>
<path d="M16.5421 17.9727C14.514 19.0491 10.0839 21.4058 6.68484 23.196C3.28577 24.9862 0.396558 26.5611 0.249265 26.697L0 26.9463V36.0105V45.0747L0.373898 45.3466C1.38229 46.1057 20.1678 57.8325 20.5077 57.9232C20.893 58.0251 21.3235 57.7985 30.8749 52.7339C36.3587 49.822 40.9475 47.3407 41.0721 47.2161C41.2987 47.0121 41.2987 46.8422 41.3327 37.3814C41.3554 29.4389 41.3327 27.6941 41.2081 27.3882C41.0608 27.0483 40.143 26.5157 30.9429 21.4851C24.0768 17.7348 20.7457 15.9673 20.5304 15.9786C20.3604 15.9899 18.5703 16.885 16.5421 17.9727ZM29.2093 22.6974C33.9227 25.2694 37.9223 27.4448 38.0923 27.5355C38.3982 27.6941 38.3755 27.7054 35.9622 29.0197L33.5262 30.3454L24.7792 25.5753C19.9639 22.9467 15.9643 20.7486 15.8963 20.6807C15.783 20.5787 16.3269 20.2388 18.1057 19.2757C19.3974 18.5846 20.4964 18.0067 20.5417 18.0067C20.587 18.0067 24.4846 20.1142 29.2093 22.6974ZM23.2157 26.833L32.6311 31.9882V34.6735V37.3701L31.1921 38.1632L29.7419 38.9563L29.6852 36.3164C29.6399 34.1523 29.5946 33.6425 29.4473 33.4159C29.3227 33.2232 26.2068 31.501 20.0658 28.2153C15.0126 25.5073 10.877 23.264 10.877 23.23C10.877 23.1507 13.6303 21.6324 13.7209 21.6664C13.7549 21.6777 18.0264 24.0004 23.2157 26.833ZM17.6185 29.1104C22.4792 31.739 26.5014 33.9257 26.5467 33.971C26.6374 34.0617 20.8136 37.2908 20.553 37.3021C20.4737 37.3021 3.25178 27.6261 2.86655 27.3655C2.83256 27.3428 8.67896 24.2724 8.72428 24.295C8.75827 24.3177 12.7578 26.4817 17.6185 29.1104ZM10.7184 33.9824L19.5447 38.9563L19.5786 47.1254C19.6013 53.663 19.5786 55.2832 19.4653 55.2152C19.386 55.1699 15.3751 52.6659 10.5711 49.6407L1.81284 44.1569V36.577C1.81284 32.4075 1.82417 28.9971 1.84683 28.9971C1.86949 28.9971 5.85773 31.2404 10.7184 33.9824ZM39.4292 37.574L39.4179 45.9358L31.9853 49.9013C27.895 52.0768 23.8388 54.2408 22.9777 54.694L21.4141 55.5211V47.3181V39.1036L24.5413 37.3928C26.2522 36.4524 27.6798 35.6819 27.7138 35.6819C27.7364 35.6819 27.7591 36.8602 27.7591 38.2992V40.9165L28.0877 41.245C28.2689 41.4263 28.5409 41.5736 28.6768 41.5736C28.9941 41.5736 33.6961 39.047 34.138 38.6504L34.4439 38.3558V35.1607V31.9656L36.9139 30.606C38.2622 29.8582 39.3839 29.235 39.4066 29.235C39.4179 29.2237 39.4292 32.9853 39.4292 37.574Z" fill="#083A7F"/>
<path d="M4.65586 35.6932C4.04402 35.9425 3.8854 36.7016 4.33861 37.2001C4.47457 37.3474 7.19383 38.979 10.389 40.8258C14.6038 43.2731 16.2807 44.1796 16.5413 44.1796C17.3684 44.1796 17.7536 43.1485 17.1418 42.5707C16.7565 42.2308 5.51695 35.7045 5.17705 35.6252C5.04108 35.6026 4.80315 35.6252 4.65586 35.6932Z" fill="#083A7F"/>
<path d="M4.20439 40.282C3.9098 40.6559 3.89847 41.1318 4.1704 41.449C4.32902 41.6416 14.4696 47.6013 15.7726 48.2698C16.3391 48.5644 16.7243 48.5417 17.0529 48.2018C17.3928 47.8733 17.4268 47.3634 17.1435 47.0348C17.0302 46.8989 14.3336 45.2673 11.1385 43.3865C6.16452 40.4746 5.26943 39.9874 4.8842 39.9874C4.53296 39.9874 4.38567 40.0554 4.20439 40.282Z" fill="#083A7F"/>
<path d="M48.8559 33.2119C46.284 35.7726 45.8081 36.3504 45.9667 36.781C46.114 37.2115 46.4879 37.4948 46.8845 37.4948C47.2357 37.4948 47.451 37.3135 49.1279 35.6593L50.986 33.8238V44.2136V54.6034H43.2475C35.6109 54.6034 35.4976 54.6034 35.2597 54.83C34.9311 55.1359 34.9198 55.8724 35.237 56.1897C35.4636 56.4163 35.6109 56.4163 43.9386 56.4163C52.425 56.4163 52.425 56.4163 52.6402 56.1783C52.8442 55.9517 52.8555 55.5778 52.8895 44.8821L52.9122 33.8351L54.7703 35.6593C56.4359 37.3135 56.6625 37.4948 57.0024 37.4948C57.7275 37.4834 58.1807 36.7923 57.8522 36.1691C57.7615 35.9992 56.4925 34.6622 55.0423 33.2119C52.493 30.6853 52.3796 30.5833 51.9491 30.5833C51.5186 30.5833 51.4052 30.6853 48.8559 33.2119Z" fill="#083A7F"/>
</svg>
