<svg width="48" height="48" viewBox="0 0 48 48" fill="none" xmlns="http://www.w3.org/2000/svg">
<path d="M11.1563 4.04082C9.99375 4.26582 8.86875 5.18457 8.31563 6.34707L8.01562 6.98457V24.0002V41.0158L8.31563 41.6533C8.8875 42.8533 10.0031 43.7346 11.2406 43.9689C11.925 44.1002 36.075 44.1002 36.7594 43.9689C37.9969 43.7346 39.1125 42.8533 39.6844 41.6533L39.9844 41.0158L40.0125 28.5002L40.0312 15.9846L34.0125 9.96582L27.9844 3.93769L19.7812 3.94707C15.2719 3.95644 11.3906 3.99394 11.1563 4.04082ZM31.0312 13.0783L35.9531 18.0002H31.0031H26.0625V13.0783C26.0625 10.3689 26.0719 8.15644 26.0906 8.15644C26.1 8.15644 28.3219 10.3689 31.0312 13.0783ZM18.1313 28.3127C19.4719 28.8189 20.0344 30.2533 19.425 31.6127C19.2 32.1189 18.8344 32.4846 18.2719 32.7752C17.7563 33.0283 16.7625 33.2158 16.1719 33.1689L15.75 33.1408V34.5658V36.0002H14.9063H14.0625V32.1096V28.2283L14.3719 28.1814C15.0469 28.0689 15.375 28.0502 16.4531 28.0783C17.3344 28.0971 17.7 28.1533 18.1313 28.3127ZM24.4875 28.1252C25.9406 28.3314 26.9156 28.9596 27.4688 30.0377C27.7688 30.6189 27.7969 30.7596 27.825 31.6502C27.8719 32.7752 27.675 33.6002 27.1875 34.3314C26.325 35.6346 24.5813 36.2064 21.975 36.0471L20.9063 35.9814V32.1002V28.2283L21.2156 28.1814C22.125 28.0314 23.6344 28.0033 24.4875 28.1252ZM33.9375 28.8283V29.5314H32.3906H30.8438V30.4689V31.4064H32.2969H33.75V32.1096V32.8127H32.2969H30.8438V34.4064V36.0002H30H29.1562V32.0627V28.1252H31.5469H33.9375V28.8283Z" fill="#FE0002"/>
<path d="M15.75 30.6096V31.9033L16.4437 31.8564C16.8844 31.8283 17.2406 31.7533 17.3906 31.6502C18.075 31.2002 18.1969 30.2439 17.6344 29.6908C17.3625 29.4096 17.2969 29.3908 16.5469 29.3533L15.75 29.3252V30.6096Z" fill="#FE0002"/>
<path d="M22.7343 29.4469C22.7062 29.5219 22.6968 30.7406 22.7062 32.1563L22.7343 34.7344L23.4374 34.725C24.628 34.7063 25.378 34.2656 25.7999 33.3375C26.0905 32.6906 26.1093 31.1719 25.8374 30.6563C25.3687 29.775 24.7593 29.4188 23.6062 29.3625C22.9593 29.3344 22.7718 29.3531 22.7343 29.4469Z" fill="#FE0002"/>
</svg>
