<svg width="10" height="9" viewBox="0 0 10 9" fill="none" xmlns="http://www.w3.org/2000/svg">
<path d="M1.76406 3.80504H1.76385H1.07859C0.974769 3.80504 0.901809 3.87249 0.870589 3.94381C0.839586 4.01464 0.840641 4.10635 0.894573 4.1822L0.894619 4.18227L3.57981 7.95489L3.57985 7.95494C3.76538 8.21534 4.13089 8.21454 4.31697 7.95539L4.31735 7.95487L9.10462 1.2272C9.10478 1.22699 9.10493 1.22678 9.10508 1.22657C9.15973 1.15067 9.16024 1.05873 9.1293 0.988394C9.09804 0.917317 9.02512 0.85 8.92141 0.85H8.23615C8.0881 0.85 7.9526 0.92531 7.86761 1.04602C7.86752 1.04615 7.86743 1.04628 7.86734 1.0464L3.94809 6.55245L2.13222 4.00082C2.1322 4.00079 2.13217 4.00076 2.13215 4.00073C2.13215 4.00072 2.13214 4.00071 2.13213 4.0007C2.09011 3.94157 2.03558 3.89239 1.97179 3.858C1.90785 3.82354 1.83677 3.80513 1.76406 3.80504Z" fill="#083A7F" stroke="#083A7F" stroke-width="0.3"/>
</svg>
