<svg width="15" height="22" viewBox="0 0 15 22" fill="none" xmlns="http://www.w3.org/2000/svg">
<path d="M6.36247 0.0616646C3.08669 0.57012 0.556914 3.12073 0.0609621 6.40485C-0.0223912 6.93831 -0.0182235 8.05108 0.0609621 8.61788C0.240172 9.83067 0.644435 11.0435 1.37378 12.5188C2.19481 14.1859 3.04084 15.5195 5.29138 18.687C5.81234 19.4205 6.41665 20.2832 6.63754 20.6041C6.86259 20.9333 7.09181 21.2209 7.16267 21.2626C7.32104 21.3584 7.67946 21.3584 7.83783 21.2626C7.90868 21.2209 8.1379 20.9333 8.36295 20.6041C8.58384 20.2832 9.18815 19.4205 9.70911 18.687C11.9596 15.5195 12.8057 14.1859 13.6267 12.5188C14.3561 11.0393 14.7562 9.84734 14.9354 8.61788C15.0187 8.04691 15.0229 6.94248 14.9395 6.39652C14.4436 3.09573 11.8971 0.55345 8.59217 0.057497C8.08789 -0.0216885 6.86259 -0.0175209 6.36247 0.0616646ZM8.45881 1.34947C10.9761 1.72456 13.0391 3.6917 13.6059 6.24648C13.6476 6.44236 13.6851 6.84246 13.6976 7.30924C13.7142 7.95106 13.7059 8.13443 13.6309 8.58037C13.4017 9.93486 12.8015 11.4436 11.7846 13.2065C11.0636 14.4609 10.2176 15.7279 8.37962 18.3119C7.93785 18.9287 7.55859 19.4663 7.53776 19.4997C7.50441 19.5538 7.49608 19.5538 7.46274 19.4997C7.4419 19.4663 7.06264 18.9287 6.62087 18.3119C4.78293 15.7279 3.93689 14.4609 3.21589 13.2065C2.19897 11.4436 1.59883 9.93486 1.36961 8.58037C1.29459 8.13443 1.28626 7.95106 1.30293 7.30924C1.31543 6.84246 1.35294 6.44236 1.39462 6.24648C1.81138 4.36686 3.04501 2.77481 4.72875 1.93295C5.91653 1.34114 7.13349 1.15359 8.45881 1.34947Z" fill="#EFEFEF"/>
<path d="M6.55328 3.84956C5.22379 4.19131 4.18604 5.23739 3.84846 6.56688C3.70676 7.12951 3.70676 7.86302 3.84846 8.42566C4.19021 9.76348 5.23213 10.8054 6.56995 11.1471C7.13258 11.2888 7.86609 11.2888 8.42873 11.1471C9.76655 10.8054 10.8085 9.76348 11.1502 8.42566C11.2919 7.86302 11.2919 7.12951 11.1502 6.56688C10.8085 5.22489 9.77072 4.18714 8.42873 3.84539C7.87026 3.70369 7.10758 3.70786 6.55328 3.84956ZM8.22868 5.14154C9.02054 5.38326 9.67903 6.07509 9.89575 6.89196C9.97493 7.2087 9.97493 7.78384 9.89575 8.10058C9.74154 8.68405 9.33728 9.23835 8.82049 9.5801C8.22035 9.97186 7.41599 10.0761 6.74082 9.84266C6.30322 9.69263 5.98648 9.48008 5.6739 9.13833C5.24046 8.66738 5.04042 8.14226 5.04042 7.47126C5.04042 6.06259 6.26571 4.92898 7.68688 5.02901C7.80358 5.03734 8.0453 5.08736 8.22868 5.14154Z" fill="#EFEFEF"/>
</svg>
