<svg width="92" height="92" viewBox="0 0 92 92" fill="none" xmlns="http://www.w3.org/2000/svg">
<path d="M90.1245 39.6742C88.5175 27.9619 82.3237 17.3676 72.9055 10.222C63.4873 3.07646 51.6163 -0.0351042 39.904 1.57186C28.1916 3.17882 17.5974 9.37268 10.4518 18.7908C3.3062 28.209 0.194632 40.08 1.8016 51.7924C3.12552 61.4864 7.58032 70.4824 14.488 77.4114C21.3957 84.3403 30.378 88.8227 40.0678 90.1765C42.0506 90.4362 44.0481 90.5668 46.0478 90.5675C54.1271 90.5807 62.0549 88.376 68.9673 84.1936C69.4525 83.9014 69.8753 83.5165 70.2117 83.0608C70.5481 82.6052 70.7915 82.0878 70.9279 81.5381C71.0643 80.9884 71.0911 80.4172 71.0068 79.8571C70.9225 79.2971 70.7287 78.7591 70.4365 78.274C70.1442 77.7888 69.7593 77.366 69.3037 77.0296C68.848 76.6932 68.3306 76.4499 67.7809 76.3134C66.6708 76.0379 65.4967 76.2147 64.5168 76.8049C59.5967 79.7581 54.0409 81.4901 48.3142 81.8561C42.5875 82.2222 36.8564 81.2115 31.6003 78.9087C26.3443 76.6059 21.7161 73.0779 18.1029 68.6199C14.4897 64.1618 11.9966 58.9034 10.8322 53.2844C9.66772 47.6654 9.86576 41.8492 11.4097 36.3224C12.9537 30.7957 15.7987 25.719 19.7068 21.517C23.6148 17.3151 28.4723 14.1101 33.8728 12.1702C39.2734 10.2303 45.0599 9.61177 50.7485 10.3665C56.0322 11.069 61.0935 12.9381 65.5657 15.8383C70.0378 18.7385 73.8089 22.5972 76.6055 27.1348C79.4022 31.6724 81.1544 36.7754 81.7354 42.0738C82.3163 47.3723 81.7113 52.7337 79.9642 57.7695C79.5109 58.9804 78.6919 60.0202 77.6208 60.7445C76.5497 61.4689 75.2798 61.8419 73.9871 61.8117C72.2836 61.8095 70.6506 61.1317 69.446 59.9272C68.2415 58.7226 67.5638 57.0896 67.5615 55.3861V28.7492C67.5615 27.6055 67.1071 26.5086 66.2984 25.6998C65.4896 24.8911 64.3927 24.4367 63.249 24.4367C62.1052 24.4367 61.0083 24.8911 60.1996 25.6998C59.3908 26.5086 58.9365 27.6055 58.9365 28.7492V28.7895C55.6672 26.322 51.7627 24.8367 47.68 24.5075C43.5973 24.1782 39.5053 25.0186 35.8829 26.9303C32.2604 28.842 29.2574 31.7459 27.2252 35.3022C25.1931 38.8585 24.2159 42.92 24.4079 47.0114C24.6 51.1028 25.9535 55.0549 28.3099 58.4052C30.6663 61.7554 33.9282 64.3652 37.7138 65.9291C41.4995 67.493 45.6522 67.9463 49.6861 67.236C53.72 66.5256 57.4681 64.6811 60.4918 61.9181C61.7135 64.4627 63.6275 66.6115 66.0144 68.1182C68.4013 69.6249 71.1645 70.4284 73.9871 70.4367C77.0727 70.4665 80.091 69.5346 82.6227 67.7705C85.1545 66.0064 87.0741 63.4977 88.1148 60.5927C90.439 53.879 91.1279 46.7077 90.1245 39.6742ZM45.999 58.9367C43.4402 58.9367 40.9388 58.178 38.8113 56.7564C36.6837 55.3348 35.0255 53.3142 34.0463 50.9502C33.0671 48.5862 32.8109 45.9849 33.3101 43.4753C33.8093 40.9656 35.0414 38.6604 36.8508 36.851C38.6601 35.0417 40.9654 33.8095 43.475 33.3103C45.9846 32.8111 48.5859 33.0673 50.9499 34.0465C53.314 35.0257 55.3345 36.684 56.7561 38.8115C58.1777 40.9391 58.9365 43.4404 58.9365 45.9992C58.9327 49.4293 57.5684 52.7178 55.143 55.1432C52.7175 57.5687 49.429 58.9329 45.999 58.9367Z" fill="#FFFDFD" fill-opacity="0.1"/>
</svg>
