<svg width="58" height="58" viewBox="0 0 58 58" fill="none" xmlns="http://www.w3.org/2000/svg">
<path d="M26.4014 1.22062C26.1598 1.33044 23.2604 3.92235 19.9217 6.99749C16.6049 10.0507 12.717 13.631 11.3003 14.927L8.71936 17.2992L6.30317 17.9472C4.97427 18.2986 3.74421 18.6611 3.55751 18.7489C3.08525 18.9906 2.52514 19.5397 2.27254 20.0339C1.77832 21.0114 1.7893 21.0992 3.74421 28.2819L5.53439 34.8715L5.5893 45.0304L5.64421 55.1894L5.88583 55.6397C6.20433 56.2437 6.74248 56.7709 7.29161 57.0125C7.70895 57.2102 8.69739 57.2212 30.8055 57.2212H53.8691L54.4512 56.9356C55.1211 56.5952 55.7032 55.8813 55.8789 55.1674C55.9668 54.8489 55.9997 49.2039 55.9997 37.3645C55.9997 18.5513 56.0327 19.4408 55.4066 18.6171C54.9783 18.068 54.4841 17.7605 53.6933 17.5628L52.9795 17.3761L51.8153 13.0599C51.1783 10.6767 50.5743 8.57899 50.4864 8.40327C50.0361 7.55761 48.9818 6.9316 48.0153 6.92062C47.6309 6.92062 45.8188 7.35992 42.3263 8.29345C39.5037 9.05125 37.1425 9.66628 37.0766 9.6553C36.9997 9.6553 35.2644 7.82119 33.2107 5.58073C28.9933 0.978996 29.0043 0.989979 27.6095 1.00096C27.0824 1.00096 26.709 1.06686 26.4014 1.22062ZM28.8396 3.64778C30.2124 5.07553 34.935 10.2374 34.891 10.2703C34.8691 10.2813 30.1136 11.5663 24.3147 13.1258C18.5159 14.6744 13.5298 16.0143 13.2222 16.1021L12.6731 16.2559L12.9477 15.9923C13.1014 15.8495 16.0887 13.1039 19.5922 9.88593C23.0957 6.66801 26.2477 3.76859 26.5881 3.43911C27.1263 2.93391 27.2691 2.85703 27.6425 2.85703C28.0379 2.85703 28.1477 2.93391 28.8396 3.64778ZM48.5754 9.02929C48.817 9.24894 49.0147 9.86397 49.9483 13.3455C50.5413 15.575 51.0246 17.42 51.0136 17.442C50.9916 17.453 43.0182 17.453 33.2876 17.442L15.5945 17.4091L27.8072 14.1362C34.5176 12.3351 41.7222 10.4021 43.809 9.83102C45.8957 9.2709 47.7517 8.79865 47.9494 8.79865C48.1691 8.78767 48.3997 8.87553 48.5754 9.02929ZM53.7592 19.7044L54.1327 20.0778V22.8894V25.701H30.7945H7.44537L7.47832 22.8565C7.51127 20.1877 7.52225 20.001 7.73092 19.7703C7.85173 19.6385 8.04942 19.4848 8.17023 19.4299C8.29103 19.3859 18.5159 19.342 30.8824 19.342L53.3858 19.331L53.7592 19.7044ZM5.57832 23.9657C5.57832 26.0963 5.55635 27.7877 5.53439 27.7328C5.51242 27.6669 5.10606 26.1952 4.64479 24.4489L3.79913 21.264L4.0078 20.8796C4.17254 20.5611 4.32629 20.4512 4.82051 20.2975C5.14999 20.1987 5.45751 20.1108 5.51242 20.1108C5.55635 20.0998 5.5893 21.846 5.57832 23.9657ZM54.1327 29.5339V31.4998L49.498 31.5437C45.0829 31.5877 44.8194 31.5986 44.1274 31.8293C42.6997 32.3015 41.3818 33.4218 40.7228 34.7287C39.0535 38.0235 40.7668 41.9223 44.3471 42.9877C44.8523 43.1414 45.6321 43.1634 49.5419 43.1634H54.1327V45.1952V47.227H30.7945H7.45635V37.3975V27.568H30.7945H54.1327V29.5339ZM54.1327 37.3426V41.3073L49.498 41.2744L44.8523 41.2414L44.2483 40.9449C43.4246 40.5385 42.7436 39.8466 42.3373 38.99C42.0407 38.364 41.9968 38.1663 41.9968 37.3426C42.0078 36.2882 42.2824 35.5634 42.9743 34.7507C43.4026 34.2455 44.4569 33.6414 45.1488 33.5096C45.4124 33.4547 47.5321 33.4108 49.8824 33.3998L54.1327 33.3888V37.3426ZM54.1327 51.8726C54.1327 54.2559 54.1107 54.6842 53.9569 54.9039C53.5396 55.4969 54.7916 55.464 30.8824 55.464C16.4402 55.464 8.57658 55.42 8.32398 55.3541C7.52225 55.1235 7.51127 55.1235 7.47832 51.9385L7.44537 49.094H30.7945H54.1327V51.8726Z" fill="#083A7F"/>
<path d="M11.234 34.0588C11.0583 34.1137 10.7837 34.2784 10.63 34.4431C10.3664 34.7177 10.3664 34.7507 10.3334 37.101C10.2895 39.8137 10.3554 40.1981 10.8935 40.5275C11.234 40.7362 11.5086 40.7472 18.7462 40.7472C26.7855 40.7472 26.7086 40.7472 27.0051 40.209C27.071 40.0773 27.1149 38.957 27.1149 37.3645C27.1149 34.8825 27.104 34.7177 26.8953 34.4541C26.7635 34.2894 26.4779 34.1137 26.2583 34.0478C25.7531 33.916 11.7282 33.916 11.234 34.0588ZM25.2479 37.3975V38.99H18.7132H12.1785V37.3975V35.805H18.7132H25.2479V37.3975Z" fill="#083A7F"/>
<path d="M44.9739 35.168C44.4138 35.3218 43.645 36.0906 43.4913 36.6397C43.2057 37.6721 43.5681 38.7484 44.3699 39.2865C44.9629 39.6819 46.0942 39.7807 46.6762 39.4842C47.5439 39.0449 47.9832 38.342 47.9832 37.3975C47.9832 36.6067 47.7965 36.1784 47.2364 35.6732C46.5774 35.0802 45.8965 34.9264 44.9739 35.168ZM45.9404 37.046C46.2259 37.2547 46.1381 37.716 45.8086 37.7599C45.3254 37.8368 45.0728 37.4085 45.4132 37.079C45.6219 36.8703 45.6878 36.8593 45.9404 37.046Z" fill="#083A7F"/>
</svg>
