<svg width="18" height="18" viewBox="0 0 18 18" fill="none" xmlns="http://www.w3.org/2000/svg">
<path d="M3.15873 0.0653839C2.78216 0.174496 2.51468 0.339924 2.02197 0.758772C1.11396 1.53663 0.818332 1.89213 0.476951 2.61367C-0.318434 4.28203 -0.114309 6.48186 1.05413 8.8612C2.19794 11.1772 4.0597 13.4087 6.33675 15.1862C6.76964 15.5241 7.87473 16.2702 8.30762 16.5131C11.1935 18.1463 13.819 18.4454 15.7265 17.3543C16.2579 17.0481 16.5008 16.8334 17.1272 16.1189C17.8276 15.3164 17.9684 15.0278 17.9965 14.3062C18.0141 13.817 17.9684 13.5776 17.7783 13.1799C17.5848 12.7681 17.4405 12.6273 16.4058 11.8248C15.0825 10.7971 15.0649 10.7865 14.7622 10.6668C14.2272 10.4556 13.6606 10.4451 13.1046 10.6281C12.7878 10.7372 12.6189 10.8498 11.8517 11.4658L11.1724 12.0114L10.7818 11.8319C8.76162 10.8921 7.13918 9.25189 6.1467 7.15061L5.99537 6.82679L6.53736 6.14748C6.83651 5.77791 7.13214 5.39074 7.19197 5.29571C7.33274 5.06341 7.43832 4.74311 7.4876 4.39114C7.56502 3.85614 7.39961 3.19795 7.08287 2.77206C6.47753 1.94844 5.39355 0.600384 5.24574 0.480713C5.03457 0.311766 4.65448 0.125219 4.36589 0.0513058C4.07378 -0.0226097 3.44732 -0.0155697 3.15873 0.0653839ZM4.1688 1.61759C4.26031 1.67038 4.51722 1.97308 5.03809 2.64183C5.44282 3.16275 5.81588 3.66959 5.87219 3.77166C5.99185 4.00045 5.99889 4.21867 5.88627 4.43689C5.84404 4.52137 5.51673 4.95429 5.15775 5.4013C4.79877 5.84479 4.47147 6.28123 4.42924 6.36571C4.27086 6.67544 4.33421 6.94998 4.79174 7.90735C5.88627 10.2198 7.78323 12.117 10.0955 13.2116C11.0527 13.6692 11.3273 13.7325 11.637 13.5741C11.7214 13.5319 12.1578 13.2046 12.6013 12.8455C13.0482 12.4865 13.4811 12.1592 13.5656 12.117C13.7838 12.0043 14.002 12.0114 14.2308 12.131C14.3328 12.1873 14.8431 12.5604 15.364 12.9687C16.1664 13.5917 16.3283 13.7325 16.3917 13.8627C16.4902 14.0634 16.4937 14.3625 16.3987 14.542C16.2896 14.7532 15.4837 15.6508 15.2479 15.8232C13.6888 16.9742 11.2287 16.5624 8.34281 14.6617C7.30459 13.9789 6.48457 13.2996 5.4745 12.2859C4.08082 10.8921 3.14466 9.62498 2.43022 8.18189C2.0466 7.40755 1.88471 6.9887 1.72634 6.35163C1.42015 5.14084 1.4835 4.09548 1.91639 3.21907C2.19442 2.65943 2.3 2.53976 3.15873 1.82173C3.31359 1.69502 3.4966 1.57183 3.56698 1.55071C3.74647 1.50144 4.01043 1.52959 4.1688 1.61759Z" fill="#EFEFEF"/>
</svg>
