<svg width="98" height="98" viewBox="0 0 98 98" fill="none" xmlns="http://www.w3.org/2000/svg">
<path d="M31.6623 3.41279C29.8947 3.52116 28.5523 3.98566 25.9664 5.34424C21.1951 7.87428 19.5405 9.1486 17.3222 11.9909C12.1664 18.557 10.89 28.4542 13.686 40.0964C16.436 51.435 22.4339 63.1116 30.7112 73.1978C32.2848 75.1152 36.4171 79.497 38.0847 80.9955C49.1882 91.048 60.4634 94.9637 69.9497 92.0418C72.5947 91.2179 73.8774 90.5119 77.3451 87.9825C81.2256 85.1385 82.1316 84.0057 82.9694 80.8535C83.5309 78.7147 83.566 77.6146 83.1219 75.6737C82.6761 73.6673 82.1795 72.9041 78.4131 68.3437C73.5976 62.5051 73.5305 62.4411 72.3149 61.6143C70.1662 60.1544 67.6794 59.5474 65.0476 59.8039C63.5437 59.9715 62.6877 60.3008 58.697 62.2565L55.1638 63.989L53.6196 62.8115C45.646 56.6713 40.1179 47.8376 37.8224 37.595L37.4758 36.0181L40.5364 33.5604C42.2204 32.2275 43.9063 30.8136 44.264 30.4539C45.1143 29.5693 45.8964 28.2622 46.4618 26.7596C47.3322 24.4784 47.2543 21.4139 46.2796 19.2236C44.4264 14.9949 40.9826 7.98135 40.4495 7.30771C39.6859 6.35424 38.1953 5.15609 36.9965 4.54485C35.7822 3.93014 33.0143 3.34148 31.6623 3.41279ZM34.5785 11.2529C34.9296 11.5761 35.7625 13.1643 37.3965 16.6269C38.665 19.3231 39.8078 21.9259 39.955 22.4315C40.2561 23.5582 40.0712 24.5269 39.359 25.3773C39.0893 25.7078 37.2185 27.2921 35.1942 28.907C33.1734 30.5065 31.2992 32.1063 31.0295 32.4368C30.0251 33.6452 30.0327 34.9178 31.1021 39.5898C33.6385 50.8642 40.1223 61.1018 49.2302 68.2135C52.9965 71.177 54.1437 71.7278 55.6653 71.3361C56.0794 71.2335 58.3265 70.2225 60.636 69.0789C62.9611 67.9388 65.1927 66.9244 65.6068 66.8218C66.6799 66.5412 67.6346 66.7881 68.5244 67.5418C68.9185 67.8909 70.7985 70.0401 72.6903 72.3548C75.6105 75.8942 76.1847 76.6748 76.3351 77.3115C76.571 78.2932 76.2905 79.6152 75.6942 80.3123C75.0044 81.1351 70.5646 84.2936 69.3547 84.8204C61.3449 88.3507 50.9101 84.1023 40.0712 72.8708C36.171 68.8344 33.2289 65.0294 29.78 59.5626C25.0164 52.0411 22.1439 45.5306 20.4227 38.4637C19.498 34.6715 19.1988 32.6654 19.131 29.701C18.9793 24.0619 20.2925 19.5173 23.0673 16.083C24.8463 13.8915 25.43 13.4685 29.9249 11.1535C30.7328 10.7482 31.6612 10.3863 31.9923 10.3629C32.8321 10.3232 33.9676 10.7084 34.5785 11.2529Z" fill="white" fill-opacity="0.1"/>
</svg>
