<svg width="58" height="58" viewBox="0 0 58 58" fill="none" xmlns="http://www.w3.org/2000/svg">
<path d="M26.0745 1.10484C25.655 1.16004 24.7387 1.33667 24.0543 1.49123C16.2935 3.23548 10.012 8.90981 7.5391 16.4498C5.28703 23.3054 6.39098 30.7461 10.5529 36.6301C10.9503 37.2042 11.2705 37.712 11.2594 37.7562C11.2374 37.8114 9.82429 40.2732 8.11316 43.2318C5.27599 48.1554 5 48.6633 5 49.1269C5 49.436 5.07728 49.7562 5.19871 49.9328C5.44158 50.3192 6.01564 50.6614 6.39098 50.6614C6.55658 50.6614 8.34499 50.3634 10.3652 49.999C12.3855 49.6458 14.0745 49.3808 14.1076 49.425C14.1408 49.4691 14.7148 50.9926 15.3661 52.8141C16.0175 54.6357 16.6247 56.2916 16.724 56.5013C16.9669 57.0202 17.4526 57.2852 18.1592 57.2852C18.667 57.2852 18.7884 57.241 19.1086 56.9209C19.3183 56.7221 20.7976 54.2714 22.5419 51.2465L25.5998 45.9255L26.2732 46.0027C27.1564 46.1021 30.8436 46.1021 31.7268 46.0027L32.4002 45.9255L35.4581 51.2465C37.2024 54.2603 38.6817 56.7221 38.8914 56.9209C39.2116 57.23 39.3441 57.2852 39.8188 57.2852C40.4591 57.2852 40.9227 57.0864 41.1656 56.7111C41.2539 56.5676 41.8832 54.8896 42.5787 52.9797C43.2631 51.0699 43.8592 49.4691 43.8924 49.425C43.9365 49.3808 45.6145 49.6347 47.6348 49.999C49.655 50.3634 51.4434 50.6614 51.609 50.6614C51.9844 50.6614 52.5584 50.3192 52.8013 49.9328C52.9227 49.7672 53 49.436 53 49.1269C53 48.6633 52.7351 48.1554 49.8427 43.1545L46.6743 37.6899L46.9614 37.3256C54.9098 26.8933 52.3818 11.9015 41.4526 4.67062C38.6265 2.80494 35.138 1.51331 31.7599 1.0938C30.6559 0.961327 27.1785 0.972366 26.0745 1.10484ZM30.6559 3.01469C34.1996 3.20236 38.207 4.71478 41.3201 7.04412C46.7406 11.0846 49.931 17.7635 49.5998 24.3983C49.2355 31.9825 44.9301 38.5952 38.1518 41.9954C33.9016 44.137 28.8675 44.7111 24.2088 43.6071C18.1371 42.161 12.6946 37.6568 10.2328 32.0487C7.69365 26.2419 7.75989 20.126 10.4425 14.6173C13.3569 8.64486 18.8767 4.42775 25.3569 3.24652C26.3947 3.05884 28.6357 2.88221 29.276 2.93741C29.4637 2.94845 30.0819 2.98157 30.6559 3.01469ZM15.5317 41.7083C17.4857 43.1656 19.6826 44.2916 22.0451 45.0644C22.8289 45.3183 23.4692 45.5611 23.4581 45.5943C23.2374 46.1021 18.2254 54.6136 18.1702 54.5473C18.126 54.5032 17.5409 52.9356 16.8675 51.0478C16.0616 48.8178 15.5538 47.5593 15.4103 47.4268C15.2778 47.3275 15.0129 47.2392 14.8252 47.2392C14.6265 47.2392 12.9374 47.5151 11.0607 47.8463C9.19503 48.1886 7.61638 48.4425 7.57222 48.4314C7.51702 48.4094 8.65409 46.356 10.0892 43.8611L12.7056 39.3238L13.6771 40.1849C14.207 40.6596 15.046 41.344 15.5317 41.7083ZM47.977 43.9825C49.379 46.4112 50.494 48.4094 50.4388 48.4314C50.3836 48.4425 48.816 48.1886 46.9393 47.8463C45.0626 47.5151 43.3735 47.2392 43.1748 47.2392C42.9871 47.2392 42.7222 47.3275 42.5897 47.4268C42.4462 47.5593 41.9384 48.8178 41.1325 51.0478C40.4591 52.9356 39.874 54.5032 39.8298 54.5473C39.7746 54.6136 34.7295 46.0469 34.5419 45.5722C34.5198 45.528 34.7185 45.4287 34.9834 45.3624C36.7829 44.9098 39.6311 43.6292 41.3091 42.5253C42.4131 41.7967 43.6164 40.8473 44.621 39.9199C45.0405 39.5335 45.3054 39.3569 45.3606 39.4452C45.3937 39.5115 46.575 41.5538 47.977 43.9825Z" fill="#083A7F"/>
<path d="M26.9254 7.28696C24.8941 7.56295 22.5868 8.34676 20.7984 9.37344C17.4203 11.3054 14.6494 14.7166 13.4129 18.4811C12.8389 20.2584 12.6291 21.8481 12.6954 24.0561C12.7616 26.1646 12.8941 26.9705 13.4902 28.7699C15.378 34.4553 20.2243 38.6062 26.2409 39.6991C27.676 39.953 30.3366 39.953 31.8159 39.6881C34.7303 39.1692 37.3357 37.9328 39.665 35.9788C42.3476 33.7157 44.3016 30.3817 45.0854 26.7055C45.3945 25.2704 45.3614 21.6384 45.0413 20.1701C43.5841 13.6899 38.6273 8.77731 32.2243 7.48568C30.9548 7.23177 28.1287 7.12137 26.9254 7.28696ZM31.9815 9.4728C37.7993 10.7975 42.2483 15.4673 43.1866 21.2078C44.3789 28.5381 39.7533 35.6034 32.5555 37.4691C25.2805 39.3679 17.6742 35.1729 15.3338 27.9751C14.4286 25.2042 14.4175 21.9475 15.3117 19.1655C16.9456 14.0763 21.4939 10.1793 26.7929 9.32928C28.1728 9.10849 30.6788 9.17473 31.9815 9.4728Z" fill="#083A7F"/>
<path d="M35.0721 15.7874C34.6968 15.953 33.5156 17.057 30.4355 20.1481C28.1503 22.4112 26.2626 24.2769 26.2184 24.2769C26.1853 24.2769 25.6223 23.6035 24.971 22.7755C24.3196 21.9475 23.591 21.1416 23.3481 20.965C22.2331 20.1591 20.6214 20.3026 19.6388 21.3072C19.131 21.8261 18.9102 22.356 18.8661 23.206C18.8219 23.8463 18.855 24.034 19.1089 24.5308C19.2635 24.8399 20.4558 26.4185 21.7474 28.0303C23.8449 30.6577 24.154 30.9889 24.6839 31.2539C25.1255 31.4857 25.4457 31.563 25.8872 31.563C27.1899 31.563 26.8918 31.8169 33.0519 25.6679C36.2865 22.4553 38.7925 19.861 38.9029 19.6403C39.3665 18.6798 39.1678 17.2778 38.4503 16.4609C37.6885 15.5998 36.1651 15.2907 35.0721 15.7874ZM36.9378 17.8298C37.4898 18.5253 37.6554 18.3265 31.7824 24.1885C26.2074 29.7746 26.2405 29.7414 25.6333 29.5096C25.534 29.4655 24.5735 28.3394 23.5027 26.9926C20.8201 23.6255 20.8311 23.6366 20.8311 23.2943C20.8311 22.7203 21.5487 22.2456 22.0344 22.5105C22.1669 22.5768 22.9397 23.482 23.7676 24.5308C24.5956 25.5795 25.3684 26.5179 25.4898 26.6173C25.6223 26.7387 25.8872 26.816 26.1632 26.816C26.6158 26.816 26.66 26.7828 31.2635 22.1793C35.6793 17.7746 35.9332 17.5427 36.3086 17.5427C36.6177 17.5427 36.7722 17.62 36.9378 17.8298Z" fill="#083A7F"/>
</svg>
