<svg width="33" height="32" viewBox="0 0 33 32" fill="none" xmlns="http://www.w3.org/2000/svg">
<path d="M6.93117 0.037487C5.58083 0.287548 4.31177 0.800177 4.0617 1.20653C3.91792 1.44409 3.88666 1.9192 3.99919 2.14426C4.0367 2.21928 4.91817 3.13826 5.96218 4.18852C8.00644 6.24528 8.0627 6.32655 7.93767 6.79541C7.80639 7.27678 7.31876 7.5581 6.84365 7.43307C6.62484 7.37681 6.29351 7.07674 4.68061 5.47009C3.63035 4.43233 2.71137 3.54461 2.63635 3.5071C2.41755 3.39457 1.92367 3.42583 1.69862 3.56336C1.37354 3.76341 0.885915 4.83868 0.604595 6.00147C0.548331 6.23278 0.523325 6.75165 0.529577 7.56436C0.529577 8.68338 0.54208 8.83342 0.698369 9.39606C1.48606 12.3093 3.81789 14.4286 6.77488 14.9162C7.51256 15.035 8.91916 15.0037 9.52556 14.8537L9.90066 14.7599L10.2007 15.0537L10.4946 15.3413L5.88091 19.9737C1.27976 24.5811 1.26101 24.5998 1.00469 25.1312C0.598344 25.9564 0.473313 26.5503 0.504571 27.5006C0.554583 28.8384 0.929676 29.6949 1.86741 30.6326C2.80514 31.5703 3.66161 31.9454 4.99944 31.9954C5.94967 32.0267 6.54357 31.9017 7.36878 31.4953C7.89391 31.239 7.94392 31.189 11.7761 27.388C13.9079 25.2688 15.9959 23.1995 16.421 22.7869L17.1837 22.0367L17.4588 22.318L17.7401 22.5993L17.6463 22.9744C17.4963 23.5746 17.465 24.9874 17.5838 25.7064C18.0714 28.6884 20.1782 31.0139 23.1039 31.8016C23.6666 31.9579 23.8166 31.9704 24.9356 31.9704C25.7483 31.9767 26.2672 31.9517 26.4985 31.8954C27.6613 31.6141 28.7366 31.1265 28.9366 30.8014C29.0742 30.5763 29.1054 30.0825 28.9929 29.8636C28.9554 29.7886 28.0739 28.8697 27.0299 27.8194C25.5983 26.3753 25.1169 25.8564 25.0669 25.6814C24.8544 25.0312 25.5233 24.3623 26.1735 24.5748C26.3485 24.6248 26.8674 25.1062 28.3115 26.5378C29.3617 27.5818 30.2807 28.4633 30.3557 28.5008C30.5745 28.6133 31.0684 28.5821 31.2935 28.4445C31.6248 28.2445 32.0999 27.188 32.3875 26.0064C32.4438 25.7751 32.4688 25.2563 32.4625 24.4436C32.4625 23.3245 32.45 23.1745 32.2937 22.6118C31.506 19.6986 29.1742 17.5793 26.2172 17.0917C25.4795 16.9729 24.0729 17.0042 23.4665 17.1542L23.0914 17.248L22.1349 16.2978L21.1847 15.3475L23.7166 12.8157L26.2485 10.2838L26.6048 10.6401C27.1612 11.1903 27.5425 11.3028 28.0302 11.0652C28.2802 10.9464 28.4053 10.7589 30.3995 7.43307C32.4062 4.08849 32.5 3.91345 32.5 3.61963C32.5 3.44458 32.4625 3.23203 32.4125 3.13826C32.3 2.93821 29.5243 0.16877 29.3305 0.0687447C29.2555 0.0312347 29.0554 -2.28882e-05 28.8866 -2.28882e-05C28.5865 -2.28882e-05 28.4178 0.09375 25.1795 2.03173C23.2852 3.16326 21.6911 4.16351 21.5786 4.28229C21.1597 4.72615 21.241 5.22628 21.8224 5.85143L22.21 6.25778L19.6781 8.78966L17.1525 11.3153L16.2022 10.3651L15.252 9.40856L15.3458 9.03347C15.4958 8.43957 15.5271 7.02047 15.4083 6.30154C14.9207 3.31955 12.7951 0.97522 9.88815 0.206278C9.36302 0.0687447 9.12546 0.0437374 8.18148 0.0249825C7.58133 0.0187321 7.01869 0.0249825 6.93117 0.037487ZM8.96292 2.00673C11.0759 2.36306 12.7951 3.95096 13.3828 6.09524C13.4953 6.50159 13.5203 6.76416 13.5203 7.50184C13.5203 8.30204 13.5016 8.47708 13.3515 9.00221C13.1515 9.70864 13.1452 9.81491 13.3015 10.115C13.4515 10.4026 22.1412 19.0797 22.4163 19.2173C22.6851 19.3548 22.8039 19.3423 23.4978 19.1485C24.0042 19.011 24.2167 18.9859 24.9669 18.9797C25.6921 18.9797 25.9296 18.9984 26.3672 19.1172C27.3988 19.3985 28.2427 19.8799 28.9616 20.6051C29.8869 21.5303 30.4245 22.6556 30.5495 23.9559C30.6121 24.5686 30.6058 24.7686 30.4933 25.4626L30.4245 25.8939L29.0367 24.5186C27.4175 22.9119 27.2112 22.7681 26.2922 22.6306C24.498 22.3618 22.8539 24.0059 23.1227 25.8001C23.2602 26.7191 23.404 26.9254 25.0107 28.5446L26.3798 29.9262L25.9859 30.0074C25.7671 30.0449 25.3232 30.0825 24.9919 30.0825C22.435 30.0825 20.297 28.4133 19.6093 25.8752C19.4905 25.4375 19.4718 25.2 19.4718 24.4748C19.478 23.7246 19.503 23.5121 19.6406 23.0057C19.8406 22.2993 19.8469 22.193 19.6906 21.8929C19.5406 21.6053 10.8509 12.9282 10.5758 12.7907C10.307 12.6531 10.1882 12.6656 9.4943 12.8594C8.98168 13.0032 8.77538 13.0282 8.02519 13.0282C7.30001 13.0345 7.0562 13.0095 6.61859 12.8907C4.79314 12.3968 3.31777 11.0652 2.73012 9.37731C2.43005 8.50834 2.33628 7.33305 2.49882 6.50784L2.57383 6.12025L3.98669 7.5206C4.86816 8.39581 5.50581 8.97721 5.68086 9.06473C6.81239 9.63987 8.13772 9.46483 9.02544 8.62087C9.65685 8.02072 9.99443 7.05173 9.8694 6.20777C9.72561 5.27629 9.61308 5.1075 8.01269 3.4946L6.60609 2.07549L7.03744 2.00673C7.76262 1.88795 8.25025 1.88795 8.96292 2.00673ZM29.5555 2.96321L30.337 3.74466L28.8679 6.18276C28.0677 7.52685 27.3863 8.62712 27.3675 8.62712C27.3175 8.62712 23.8604 5.12 23.8854 5.09499C23.9291 5.05123 28.7241 2.18802 28.7491 2.18802C28.7678 2.18802 29.1304 2.53811 29.5555 2.96321ZM22.3412 11.4403L19.8094 13.9722L19.1717 13.3283L18.5278 12.6906L21.0597 10.1588L23.5916 7.62687L24.2292 8.26453L24.8731 8.90844L22.3412 11.4403ZM13.8391 18.6921L15.7771 20.6301L11.3698 25.0374C8.94417 27.4631 6.85615 29.5198 6.73112 29.6073C5.92467 30.17 4.76188 30.22 3.81164 29.7324C3.52407 29.5823 2.89892 28.9322 2.74263 28.6258C2.31752 27.8006 2.31752 26.8441 2.74263 26.0002C2.8364 25.8064 4.243 24.3623 7.35627 21.2365C9.81939 18.7734 11.8511 16.7541 11.8699 16.7541C11.8886 16.7541 12.7764 17.6294 13.8391 18.6921Z" fill="white"/>
<path d="M11.5877 19.8175C11.4251 19.8925 10.2623 21.0178 8.38686 22.8933C5.78621 25.5064 5.42988 25.8815 5.36736 26.1191C5.26734 26.5067 5.34235 26.7942 5.62367 27.0755C5.93625 27.3881 6.30509 27.4569 6.69269 27.2631C6.88024 27.1756 7.86798 26.2253 9.91224 24.1811C13.0818 20.999 13.0693 21.0178 12.9693 20.4802C12.888 20.0613 12.4441 19.6925 12.0128 19.6925C11.919 19.6925 11.7252 19.7487 11.5877 19.8175Z" fill="white"/>
</svg>
