<svg width="108" height="63" viewBox="0 0 108 63" fill="none" xmlns="http://www.w3.org/2000/svg">
<path d="M24.45 50.5055V44.2855L24.76 44.6055H22.14V43.5055H28.06V44.6055H25.44L25.74 44.2855V50.5055H24.45ZM33.4601 49.9055V44.6055H30.7201L30.6701 45.8455C30.6501 46.3122 30.6201 46.7555 30.5801 47.1755C30.5467 47.5888 30.4901 47.9655 30.4101 48.3055C30.3367 48.6455 30.2334 48.9288 30.1001 49.1555C29.9667 49.3822 29.8034 49.5322 29.6101 49.6055L28.2101 49.4055C28.4634 49.4188 28.6701 49.3322 28.8301 49.1455C28.9967 48.9588 29.1267 48.6988 29.2201 48.3655C29.3134 48.0322 29.3834 47.6422 29.4301 47.1955C29.4767 46.7422 29.5101 46.2522 29.5301 45.7255L29.6101 43.5055H34.7401V49.9055H33.4601ZM27.9701 51.9955L27.9801 49.4055H35.7501V51.9955H34.5501V50.5055H29.1801V51.9955H27.9701ZM39.0478 43.5055H40.5478L42.1978 45.8455L43.8478 43.5055H45.3678L43.0178 46.8655L45.5578 50.5055H44.0178L42.1978 47.9555L40.3878 50.5055H38.8878L41.4178 46.9155L39.0478 43.5055ZM49.6577 50.6055C49.1111 50.6055 48.6077 50.5155 48.1477 50.3355C47.6877 50.1555 47.2877 49.9055 46.9477 49.5855C46.6077 49.2588 46.3444 48.8788 46.1577 48.4455C45.9711 48.0055 45.8777 47.5255 45.8777 47.0055C45.8777 46.4855 45.9711 46.0088 46.1577 45.5755C46.3444 45.1355 46.6077 44.7555 46.9477 44.4355C47.2877 44.1088 47.6877 43.8555 48.1477 43.6755C48.6077 43.4955 49.1077 43.4055 49.6477 43.4055C50.1944 43.4055 50.6944 43.4955 51.1477 43.6755C51.6077 43.8555 52.0077 44.1088 52.3477 44.4355C52.6877 44.7555 52.9511 45.1355 53.1377 45.5755C53.3244 46.0088 53.4177 46.4855 53.4177 47.0055C53.4177 47.5255 53.3244 48.0055 53.1377 48.4455C52.9511 48.8855 52.6877 49.2655 52.3477 49.5855C52.0077 49.9055 51.6077 50.1555 51.1477 50.3355C50.6944 50.5155 50.1977 50.6055 49.6577 50.6055ZM49.6477 49.4655C50.0011 49.4655 50.3277 49.4055 50.6277 49.2855C50.9277 49.1655 51.1877 48.9955 51.4077 48.7755C51.6277 48.5488 51.7977 48.2888 51.9177 47.9955C52.0444 47.6955 52.1077 47.3655 52.1077 47.0055C52.1077 46.6455 52.0444 46.3188 51.9177 46.0255C51.7977 45.7255 51.6277 45.4655 51.4077 45.2455C51.1877 45.0188 50.9277 44.8455 50.6277 44.7255C50.3277 44.6055 50.0011 44.5455 49.6477 44.5455C49.2944 44.5455 48.9677 44.6055 48.6677 44.7255C48.3744 44.8455 48.1144 45.0188 47.8877 45.2455C47.6677 45.4655 47.4944 45.7255 47.3677 46.0255C47.2477 46.3188 47.1877 46.6455 47.1877 47.0055C47.1877 47.3588 47.2477 47.6855 47.3677 47.9855C47.4944 48.2855 47.6677 48.5488 47.8877 48.7755C48.1077 48.9955 48.3677 49.1655 48.6677 49.2855C48.9677 49.4055 49.2944 49.4655 49.6477 49.4655ZM54.855 50.5055V43.5055H57.735C58.355 43.5055 58.885 43.6055 59.325 43.8055C59.7717 44.0055 60.115 44.2922 60.355 44.6655C60.595 45.0388 60.715 45.4822 60.715 45.9955C60.715 46.5088 60.595 46.9522 60.355 47.3255C60.115 47.6988 59.7717 47.9855 59.325 48.1855C58.885 48.3855 58.355 48.4855 57.735 48.4855H55.575L56.155 47.8755V50.5055H54.855ZM56.155 48.0155L55.575 47.3855H57.675C58.2483 47.3855 58.6783 47.2655 58.965 47.0255C59.2583 46.7788 59.405 46.4355 59.405 45.9955C59.405 45.5488 59.2583 45.2055 58.965 44.9655C58.6783 44.7255 58.2483 44.6055 57.675 44.6055H55.575L56.155 43.9655V48.0155ZM63.1448 46.4155H66.6248V47.4855H63.1448V46.4155ZM63.2448 49.4155H67.1948V50.5055H61.9448V43.5055H67.0548V44.5955H63.2448V49.4155ZM73.2741 50.5055L70.9041 47.0955L71.9541 46.4455L74.7441 50.5055H73.2741ZM68.6441 50.5055V43.5055H69.9241V50.5055H68.6441ZM69.5341 47.5555V46.4355H71.8941V47.5555H69.5341ZM72.0741 47.1555L70.8841 46.9955L73.2741 43.5055H74.6541L72.0741 47.1555ZM74.6193 50.5055L77.7693 43.5055H79.0493L82.2093 50.5055H80.8493L78.1393 44.1955H78.6593L75.9593 50.5055H74.6193ZM76.0693 48.8855L76.4193 47.8655H80.1993L80.5493 48.8855H76.0693Z" fill="#083A7F"/>
<path d="M2.219 60.9387C1.86433 60.9387 1.54467 60.8594 1.26 60.7007C0.98 60.5374 0.758333 60.3157 0.595 60.0357C0.431667 59.751 0.35 59.4267 0.35 59.0627C0.35 58.694 0.431667 58.3697 0.595 58.0897C0.758333 57.8097 0.98 57.5904 1.26 57.4317C1.54 57.273 1.85967 57.1937 2.219 57.1937C2.583 57.1937 2.905 57.273 3.185 57.4317C3.46967 57.5904 3.69133 57.8097 3.85 58.0897C4.01333 58.3697 4.095 58.694 4.095 59.0627C4.095 59.4267 4.01333 59.751 3.85 60.0357C3.69133 60.3157 3.46967 60.5374 3.185 60.7007C2.90033 60.8594 2.57833 60.9387 2.219 60.9387ZM2.219 60.4977C2.485 60.4977 2.72067 60.4394 2.926 60.3227C3.13133 60.2014 3.29233 60.0334 3.409 59.8187C3.53033 59.5994 3.591 59.3474 3.591 59.0627C3.591 58.7734 3.53033 58.5214 3.409 58.3067C3.29233 58.092 3.13133 57.9264 2.926 57.8097C2.72067 57.6884 2.48733 57.6277 2.226 57.6277C1.96467 57.6277 1.73133 57.6884 1.526 57.8097C1.32067 57.9264 1.15733 58.092 1.036 58.3067C0.914667 58.5214 0.854 58.7734 0.854 59.0627C0.854 59.3474 0.914667 59.5994 1.036 59.8187C1.15733 60.0334 1.32067 60.2014 1.526 60.3227C1.73133 60.4394 1.96233 60.4977 2.219 60.4977ZM6.8092 60.9457C6.51053 60.9457 6.24453 60.8967 6.0112 60.7987C5.78253 60.7007 5.58653 60.5514 5.4232 60.3507C5.25986 60.15 5.1362 59.9027 5.0522 59.6087C4.9682 59.31 4.9262 58.9647 4.9262 58.5727C4.9262 58.2227 4.95886 57.917 5.0242 57.6557C5.08953 57.3897 5.18053 57.161 5.2972 56.9697C5.41386 56.7784 5.5492 56.6174 5.7032 56.4867C5.86186 56.3514 6.0322 56.244 6.2142 56.1647C6.40086 56.0807 6.5922 56.0177 6.7882 55.9757L8.4402 55.5907L8.5242 56.0527L6.9702 56.4027C6.8722 56.426 6.7532 56.4587 6.6132 56.5007C6.47786 56.5427 6.33786 56.6057 6.1932 56.6897C6.0532 56.7737 5.92253 56.8904 5.8012 57.0397C5.67986 57.189 5.58186 57.3827 5.5072 57.6207C5.4372 57.854 5.4022 58.1457 5.4022 58.4957C5.4022 58.5704 5.40453 58.631 5.4092 58.6777C5.41386 58.7197 5.41853 58.7664 5.4232 58.8177C5.43253 58.8644 5.43953 58.9344 5.4442 59.0277L5.2272 58.8457C5.27853 58.561 5.38353 58.3137 5.5422 58.1037C5.70086 57.889 5.8992 57.7234 6.1372 57.6067C6.37986 57.4854 6.6482 57.4247 6.9422 57.4247C7.28286 57.4247 7.5862 57.4994 7.8522 57.6487C8.1182 57.7934 8.32586 57.9964 8.4752 58.2577C8.6292 58.519 8.7062 58.8224 8.7062 59.1677C8.7062 59.5084 8.62686 59.814 8.4682 60.0847C8.3142 60.3554 8.09486 60.5677 7.8102 60.7217C7.52553 60.871 7.19186 60.9457 6.8092 60.9457ZM6.8652 60.5327C7.12653 60.5327 7.35753 60.4744 7.5582 60.3577C7.75886 60.2364 7.9152 60.073 8.0272 59.8677C8.14386 59.6624 8.2022 59.4314 8.2022 59.1747C8.2022 58.9227 8.14386 58.6987 8.0272 58.5027C7.9152 58.3067 7.75886 58.1527 7.5582 58.0407C7.35753 57.924 7.1242 57.8657 6.8582 57.8657C6.59686 57.8657 6.36586 57.9217 6.1652 58.0337C5.96453 58.141 5.80586 58.2927 5.6892 58.4887C5.5772 58.6847 5.5212 58.911 5.5212 59.1677C5.5212 59.4244 5.5772 59.6554 5.6892 59.8607C5.80586 60.066 5.96453 60.2294 6.1652 60.3507C6.37053 60.472 6.60386 60.5327 6.8652 60.5327ZM11.2835 60.9387C10.9288 60.9387 10.6091 60.8594 10.3245 60.7007C10.0445 60.5374 9.82279 60.3157 9.65945 60.0357C9.49612 59.751 9.41445 59.4267 9.41445 59.0627C9.41445 58.694 9.49612 58.3697 9.65945 58.0897C9.82279 57.8097 10.0445 57.5904 10.3245 57.4317C10.6045 57.273 10.9241 57.1937 11.2835 57.1937C11.6475 57.1937 11.9695 57.273 12.2495 57.4317C12.5341 57.5904 12.7558 57.8097 12.9145 58.0897C13.0778 58.3697 13.1595 58.694 13.1595 59.0627C13.1595 59.4267 13.0778 59.751 12.9145 60.0357C12.7558 60.3157 12.5341 60.5374 12.2495 60.7007C11.9648 60.8594 11.6428 60.9387 11.2835 60.9387ZM11.2835 60.4977C11.5495 60.4977 11.7851 60.4394 11.9905 60.3227C12.1958 60.2014 12.3568 60.0334 12.4735 59.8187C12.5948 59.5994 12.6555 59.3474 12.6555 59.0627C12.6555 58.7734 12.5948 58.5214 12.4735 58.3067C12.3568 58.092 12.1958 57.9264 11.9905 57.8097C11.7851 57.6884 11.5518 57.6277 11.2905 57.6277C11.0291 57.6277 10.7958 57.6884 10.5905 57.8097C10.3851 57.9264 10.2218 58.092 10.1005 58.3067C9.97912 58.5214 9.91845 58.7734 9.91845 59.0627C9.91845 59.3474 9.97912 59.5994 10.1005 59.8187C10.2218 60.0334 10.3851 60.2014 10.5905 60.3227C10.7958 60.4394 11.0268 60.4977 11.2835 60.4977ZM16.1186 60.9387C15.8013 60.9387 15.5143 60.8664 15.2576 60.7217C15.001 60.5724 14.7956 60.36 14.6416 60.0847C14.4923 59.8047 14.4176 59.464 14.4176 59.0627C14.4176 58.6614 14.4923 58.323 14.6416 58.0477C14.791 57.7677 14.994 57.5554 15.2506 57.4107C15.5073 57.266 15.7966 57.1937 16.1186 57.1937C16.4686 57.1937 16.7813 57.273 17.0566 57.4317C17.3366 57.5857 17.556 57.805 17.7146 58.0897C17.8733 58.3697 17.9526 58.694 17.9526 59.0627C17.9526 59.436 17.8733 59.7627 17.7146 60.0427C17.556 60.3227 17.3366 60.542 17.0566 60.7007C16.7813 60.8594 16.4686 60.9387 16.1186 60.9387ZM14.2216 62.2617V57.2287H14.6976V58.3347L14.6486 59.0697L14.7186 59.8117V62.2617H14.2216ZM16.0836 60.4977C16.345 60.4977 16.5783 60.4394 16.7836 60.3227C16.989 60.2014 17.1523 60.0334 17.2736 59.8187C17.395 59.5994 17.4556 59.3474 17.4556 59.0627C17.4556 58.778 17.395 58.5284 17.2736 58.3137C17.1523 58.099 16.989 57.931 16.7836 57.8097C16.5783 57.6884 16.345 57.6277 16.0836 57.6277C15.8223 57.6277 15.5866 57.6884 15.3766 57.8097C15.1713 57.931 15.008 58.099 14.8866 58.3137C14.77 58.5284 14.7116 58.778 14.7116 59.0627C14.7116 59.3474 14.77 59.5994 14.8866 59.8187C15.008 60.0334 15.1713 60.2014 15.3766 60.3227C15.5866 60.4394 15.8223 60.4977 16.0836 60.4977ZM18.9809 62.2967C18.8083 62.2967 18.6426 62.2687 18.4839 62.2127C18.3299 62.1567 18.1969 62.0727 18.0849 61.9607L18.3159 61.5897C18.4093 61.6784 18.5096 61.746 18.6169 61.7927C18.7289 61.844 18.8526 61.8697 18.9879 61.8697C19.1513 61.8697 19.2913 61.823 19.4079 61.7297C19.5293 61.641 19.6436 61.4824 19.7509 61.2537L19.9889 60.7147L20.0449 60.6377L21.5569 57.2287H22.0469L20.2059 61.3447C20.1033 61.5827 19.9889 61.7717 19.8629 61.9117C19.7416 62.0517 19.6086 62.1497 19.4639 62.2057C19.3193 62.2664 19.1583 62.2967 18.9809 62.2967ZM19.9609 61.0087L18.2669 57.2287H18.7849L20.2829 60.6027L19.9609 61.0087ZM25.184 60.6657V57.6627H23.413L23.371 58.4817C23.3617 58.729 23.3454 58.9717 23.322 59.2097C23.3034 59.4477 23.2684 59.667 23.217 59.8677C23.1704 60.0637 23.1027 60.2247 23.014 60.3507C22.9254 60.472 22.811 60.542 22.671 60.5607L22.174 60.4697C22.3187 60.4744 22.4377 60.423 22.531 60.3157C22.6244 60.2037 22.6967 60.052 22.748 59.8607C22.7994 59.6694 22.8367 59.4524 22.86 59.2097C22.8834 58.9624 22.902 58.7104 22.916 58.4537L22.965 57.2287H25.681V60.6657H25.184ZM22.02 61.7927V60.4697H26.255V61.7927H25.786V60.9037H22.489V61.7927H22.02ZM28.7356 60.9387C28.3809 60.9387 28.0613 60.8594 27.7766 60.7007C27.4966 60.5374 27.2749 60.3157 27.1116 60.0357C26.9483 59.751 26.8666 59.4267 26.8666 59.0627C26.8666 58.694 26.9483 58.3697 27.1116 58.0897C27.2749 57.8097 27.4966 57.5904 27.7766 57.4317C28.0566 57.273 28.3763 57.1937 28.7356 57.1937C29.0996 57.1937 29.4216 57.273 29.7016 57.4317C29.9863 57.5904 30.2079 57.8097 30.3666 58.0897C30.5299 58.3697 30.6116 58.694 30.6116 59.0627C30.6116 59.4267 30.5299 59.751 30.3666 60.0357C30.2079 60.3157 29.9863 60.5374 29.7016 60.7007C29.4169 60.8594 29.0949 60.9387 28.7356 60.9387ZM28.7356 60.4977C29.0016 60.4977 29.2373 60.4394 29.4426 60.3227C29.6479 60.2014 29.8089 60.0334 29.9256 59.8187C30.0469 59.5994 30.1076 59.3474 30.1076 59.0627C30.1076 58.7734 30.0469 58.5214 29.9256 58.3067C29.8089 58.092 29.6479 57.9264 29.4426 57.8097C29.2373 57.6884 29.0039 57.6277 28.7426 57.6277C28.4813 57.6277 28.2479 57.6884 28.0426 57.8097C27.8373 57.9264 27.6739 58.092 27.5526 58.3067C27.4313 58.5214 27.3706 58.7734 27.3706 59.0627C27.3706 59.3474 27.4313 59.5994 27.5526 59.8187C27.6739 60.0334 27.8373 60.2014 28.0426 60.3227C28.2479 60.4394 28.4789 60.4977 28.7356 60.4977ZM31.6738 60.9037V57.2287H33.2978C33.7131 57.2287 34.0398 57.308 34.2778 57.4667C34.5205 57.6254 34.6418 57.8587 34.6418 58.1667C34.6418 58.4654 34.5275 58.6964 34.2988 58.8597C34.0701 59.0184 33.7691 59.0977 33.3958 59.0977L33.4938 58.9507C33.9325 58.9507 34.2545 59.0324 34.4598 59.1957C34.6651 59.359 34.7678 59.5947 34.7678 59.9027C34.7678 60.22 34.6511 60.4674 34.4178 60.6447C34.1891 60.8174 33.8321 60.9037 33.3468 60.9037H31.6738ZM32.1568 60.5117H33.3258C33.6385 60.5117 33.8741 60.4627 34.0328 60.3647C34.1961 60.262 34.2778 60.0987 34.2778 59.8747C34.2778 59.6507 34.2055 59.4874 34.0608 59.3847C33.9161 59.282 33.6875 59.2307 33.3748 59.2307H32.1568V60.5117ZM32.1568 58.8597H33.2628C33.5475 58.8597 33.7645 58.806 33.9138 58.6987C34.0678 58.5914 34.1448 58.435 34.1448 58.2297C34.1448 58.0244 34.0678 57.8704 33.9138 57.7677C33.7645 57.665 33.5475 57.6137 33.2628 57.6137H32.1568V58.8597ZM38.2146 60.9037V60.0917L38.1936 59.9587V58.6007C38.1936 58.288 38.1049 58.0477 37.9276 57.8797C37.7549 57.7117 37.4959 57.6277 37.1506 57.6277C36.9126 57.6277 36.6863 57.6674 36.4716 57.7467C36.2569 57.826 36.0749 57.931 35.9256 58.0617L35.7016 57.6907C35.8883 57.532 36.1123 57.4107 36.3736 57.3267C36.6349 57.238 36.9103 57.1937 37.1996 57.1937C37.6756 57.1937 38.0419 57.3127 38.2986 57.5507C38.5599 57.784 38.6906 58.141 38.6906 58.6217V60.9037H38.2146ZM36.9476 60.9387C36.6723 60.9387 36.4319 60.8944 36.2266 60.8057C36.0259 60.7124 35.8719 60.5864 35.7646 60.4277C35.6573 60.2644 35.6036 60.0777 35.6036 59.8677C35.6036 59.6764 35.6479 59.5037 35.7366 59.3497C35.8299 59.191 35.9793 59.065 36.1846 58.9717C36.3946 58.8737 36.6746 58.8247 37.0246 58.8247H38.2916V59.1957H37.0386C36.6839 59.1957 36.4366 59.2587 36.2966 59.3847C36.1613 59.5107 36.0936 59.667 36.0936 59.8537C36.0936 60.0637 36.1753 60.2317 36.3386 60.3577C36.5019 60.4837 36.7306 60.5467 37.0246 60.5467C37.3046 60.5467 37.5449 60.4837 37.7456 60.3577C37.9509 60.227 38.1003 60.0404 38.1936 59.7977L38.3056 60.1407C38.2123 60.3834 38.0489 60.577 37.8156 60.7217C37.5869 60.8664 37.2976 60.9387 36.9476 60.9387ZM40.0136 60.9037V57.2287H40.5106V58.8527H42.8276V57.2287H43.3246V60.9037H42.8276V59.2797H40.5106V60.9037H40.0136ZM44.7373 60.9037V57.2287H45.2343V60.1477L47.6913 57.2287H48.1323V60.9037H47.6353V57.9777L45.1853 60.9037H44.7373ZM51.1316 60.9387C50.7489 60.9387 50.4129 60.8594 50.1236 60.7007C49.8343 60.5374 49.6079 60.3157 49.4446 60.0357C49.2813 59.751 49.1996 59.4267 49.1996 59.0627C49.1996 58.6987 49.2766 58.3767 49.4306 58.0967C49.5893 57.8167 49.8039 57.5974 50.0746 57.4387C50.3499 57.2754 50.6579 57.1937 50.9986 57.1937C51.3439 57.1937 51.6496 57.273 51.9156 57.4317C52.1863 57.5857 52.3986 57.805 52.5526 58.0897C52.7066 58.3697 52.7836 58.694 52.7836 59.0627C52.7836 59.086 52.7813 59.1117 52.7766 59.1397C52.7766 59.163 52.7766 59.1887 52.7766 59.2167H49.5776V58.8457H52.5106L52.3146 58.9927C52.3146 58.7267 52.2563 58.491 52.1396 58.2857C52.0276 58.0757 51.8736 57.9124 51.6776 57.7957C51.4816 57.679 51.2553 57.6207 50.9986 57.6207C50.7466 57.6207 50.5203 57.679 50.3196 57.7957C50.1189 57.9124 49.9626 58.0757 49.8506 58.2857C49.7386 58.4957 49.6826 58.736 49.6826 59.0067V59.0837C49.6826 59.3637 49.7433 59.611 49.8646 59.8257C49.9906 60.0357 50.1633 60.2014 50.3826 60.3227C50.6066 60.4394 50.8609 60.4977 51.1456 60.4977C51.3696 60.4977 51.5773 60.458 51.7686 60.3787C51.9646 60.2994 52.1326 60.178 52.2726 60.0147L52.5526 60.3367C52.3893 60.5327 52.1839 60.682 51.9366 60.7847C51.6939 60.8874 51.4256 60.9387 51.1316 60.9387ZM58.2358 60.6657V57.6627H56.4648L56.4228 58.4817C56.4135 58.729 56.3971 58.9717 56.3738 59.2097C56.3551 59.4477 56.3201 59.667 56.2688 59.8677C56.2221 60.0637 56.1545 60.2247 56.0658 60.3507C55.9771 60.472 55.8628 60.542 55.7228 60.5607L55.2258 60.4697C55.3705 60.4744 55.4895 60.423 55.5828 60.3157C55.6761 60.2037 55.7485 60.052 55.7998 59.8607C55.8511 59.6694 55.8885 59.4524 55.9118 59.2097C55.9351 58.9624 55.9538 58.7104 55.9678 58.4537L56.0168 57.2287H58.7328V60.6657H58.2358ZM55.0718 61.7927V60.4697H59.3068V61.7927H58.8378V60.9037H55.5408V61.7927H55.0718ZM59.6034 60.8967L59.6384 60.4697C59.671 60.4744 59.7014 60.4814 59.7294 60.4907C59.762 60.4954 59.79 60.4977 59.8134 60.4977C59.9627 60.4977 60.0817 60.4417 60.1704 60.3297C60.2637 60.2177 60.3337 60.0684 60.3804 59.8817C60.427 59.695 60.4597 59.485 60.4784 59.2517C60.497 59.0137 60.5134 58.7757 60.5274 58.5377L60.5904 57.2287H63.2854V60.9037H62.7884V57.5157L62.9144 57.6627H60.9124L61.0314 57.5087L60.9754 58.5727C60.9614 58.89 60.9357 59.1934 60.8984 59.4827C60.8657 59.772 60.812 60.0264 60.7374 60.2457C60.6674 60.465 60.5694 60.6377 60.4434 60.7637C60.3174 60.885 60.1564 60.9457 59.9604 60.9457C59.9044 60.9457 59.846 60.941 59.7854 60.9317C59.7294 60.9224 59.6687 60.9107 59.6034 60.8967ZM67.0712 60.9037V59.5807L67.1622 59.6857H65.9162C65.4449 59.6857 65.0762 59.583 64.8102 59.3777C64.5442 59.1724 64.4112 58.8737 64.4112 58.4817C64.4112 58.0617 64.5535 57.749 64.8382 57.5437C65.1229 57.3337 65.5032 57.2287 65.9792 57.2287H67.5262V60.9037H67.0712ZM64.3832 60.9037L65.3912 59.4897H65.9092L64.9222 60.9037H64.3832ZM67.0712 59.4337V57.5157L67.1622 57.6627H65.9932C65.6525 57.6627 65.3865 57.728 65.1952 57.8587C65.0085 57.9894 64.9152 58.2017 64.9152 58.4957C64.9152 59.0417 65.2629 59.3147 65.9582 59.3147H67.1622L67.0712 59.4337ZM72.2874 60.9387C71.9327 60.9387 71.613 60.8594 71.3284 60.7007C71.0484 60.5374 70.8267 60.3157 70.6634 60.0357C70.5 59.751 70.4184 59.4267 70.4184 59.0627C70.4184 58.694 70.5 58.3697 70.6634 58.0897C70.8267 57.8097 71.0484 57.5904 71.3284 57.4317C71.6084 57.273 71.928 57.1937 72.2874 57.1937C72.6514 57.1937 72.9734 57.273 73.2534 57.4317C73.538 57.5904 73.7597 57.8097 73.9184 58.0897C74.0817 58.3697 74.1634 58.694 74.1634 59.0627C74.1634 59.4267 74.0817 59.751 73.9184 60.0357C73.7597 60.3157 73.538 60.5374 73.2534 60.7007C72.9687 60.8594 72.6467 60.9387 72.2874 60.9387ZM72.2874 60.4977C72.5534 60.4977 72.789 60.4394 72.9944 60.3227C73.1997 60.2014 73.3607 60.0334 73.4774 59.8187C73.5987 59.5994 73.6594 59.3474 73.6594 59.0627C73.6594 58.7734 73.5987 58.5214 73.4774 58.3067C73.3607 58.092 73.1997 57.9264 72.9944 57.8097C72.789 57.6884 72.5557 57.6277 72.2944 57.6277C72.033 57.6277 71.7997 57.6884 71.5944 57.8097C71.389 57.9264 71.2257 58.092 71.1044 58.3067C70.983 58.5214 70.9224 58.7734 70.9224 59.0627C70.9224 59.3474 70.983 59.5994 71.1044 59.8187C71.2257 60.0334 71.389 60.2014 71.5944 60.3227C71.7997 60.4394 72.0307 60.4977 72.2874 60.4977ZM76.8776 60.9457C76.5789 60.9457 76.3129 60.8967 76.0796 60.7987C75.8509 60.7007 75.6549 60.5514 75.4916 60.3507C75.3282 60.15 75.2046 59.9027 75.1206 59.6087C75.0366 59.31 74.9946 58.9647 74.9946 58.5727C74.9946 58.2227 75.0272 57.917 75.0926 57.6557C75.1579 57.3897 75.2489 57.161 75.3656 56.9697C75.4822 56.7784 75.6176 56.6174 75.7716 56.4867C75.9302 56.3514 76.1006 56.244 76.2826 56.1647C76.4692 56.0807 76.6606 56.0177 76.8566 55.9757L78.5086 55.5907L78.5926 56.0527L77.0386 56.4027C76.9406 56.426 76.8216 56.4587 76.6816 56.5007C76.5462 56.5427 76.4062 56.6057 76.2616 56.6897C76.1216 56.7737 75.9909 56.8904 75.8696 57.0397C75.7482 57.189 75.6502 57.3827 75.5756 57.6207C75.5056 57.854 75.4706 58.1457 75.4706 58.4957C75.4706 58.5704 75.4729 58.631 75.4776 58.6777C75.4822 58.7197 75.4869 58.7664 75.4916 58.8177C75.5009 58.8644 75.5079 58.9344 75.5126 59.0277L75.2956 58.8457C75.3469 58.561 75.4519 58.3137 75.6106 58.1037C75.7692 57.889 75.9676 57.7234 76.2056 57.6067C76.4482 57.4854 76.7166 57.4247 77.0106 57.4247C77.3512 57.4247 77.6546 57.4994 77.9206 57.6487C78.1866 57.7934 78.3942 57.9964 78.5436 58.2577C78.6976 58.519 78.7746 58.8224 78.7746 59.1677C78.7746 59.5084 78.6952 59.814 78.5366 60.0847C78.3826 60.3554 78.1632 60.5677 77.8786 60.7217C77.5939 60.871 77.2602 60.9457 76.8776 60.9457ZM76.9336 60.5327C77.1949 60.5327 77.4259 60.4744 77.6266 60.3577C77.8272 60.2364 77.9836 60.073 78.0956 59.8677C78.2122 59.6624 78.2706 59.4314 78.2706 59.1747C78.2706 58.9227 78.2122 58.6987 78.0956 58.5027C77.9836 58.3067 77.8272 58.1527 77.6266 58.0407C77.4259 57.924 77.1926 57.8657 76.9266 57.8657C76.6652 57.8657 76.4342 57.9217 76.2336 58.0337C76.0329 58.141 75.8742 58.2927 75.7576 58.4887C75.6456 58.6847 75.5896 58.911 75.5896 59.1677C75.5896 59.4244 75.6456 59.6554 75.7576 59.8607C75.8742 60.066 76.0329 60.2294 76.2336 60.3507C76.4389 60.472 76.6722 60.5327 76.9336 60.5327ZM82.2548 60.4697L82.1428 60.6027V57.2287H82.6398V60.6027L82.5068 60.4697H84.5578L84.4248 60.6027V57.2287H84.9218V60.9037H79.8398V57.2287H80.3368V60.6027L80.2108 60.4697H82.2548ZM85.0198 61.7087V60.7707L85.1458 60.9037H84.3968V60.4697H85.4888V61.7087H85.0198ZM87.909 60.9387C87.5263 60.9387 87.1903 60.8594 86.901 60.7007C86.6116 60.5374 86.3853 60.3157 86.222 60.0357C86.0586 59.751 85.977 59.4267 85.977 59.0627C85.977 58.6987 86.054 58.3767 86.208 58.0967C86.3666 57.8167 86.5813 57.5974 86.852 57.4387C87.1273 57.2754 87.4353 57.1937 87.776 57.1937C88.1213 57.1937 88.427 57.273 88.693 57.4317C88.9636 57.5857 89.176 57.805 89.33 58.0897C89.484 58.3697 89.561 58.694 89.561 59.0627C89.561 59.086 89.5586 59.1117 89.554 59.1397C89.554 59.163 89.554 59.1887 89.554 59.2167H86.355V58.8457H89.288L89.092 58.9927C89.092 58.7267 89.0336 58.491 88.917 58.2857C88.805 58.0757 88.651 57.9124 88.455 57.7957C88.259 57.679 88.0326 57.6207 87.776 57.6207C87.524 57.6207 87.2976 57.679 87.097 57.7957C86.8963 57.9124 86.74 58.0757 86.628 58.2857C86.516 58.4957 86.46 58.736 86.46 59.0067V59.0837C86.46 59.3637 86.5206 59.611 86.642 59.8257C86.768 60.0357 86.9406 60.2014 87.16 60.3227C87.384 60.4394 87.6383 60.4977 87.923 60.4977C88.147 60.4977 88.3546 60.458 88.546 60.3787C88.742 60.2994 88.91 60.178 89.05 60.0147L89.33 60.3367C89.1666 60.5327 88.9613 60.682 88.714 60.7847C88.4713 60.8874 88.203 60.9387 87.909 60.9387ZM90.6611 60.9037V57.2287H93.9651V60.9037H93.4681V57.5297L93.5941 57.6627H91.0321L91.1581 57.5297V60.9037H90.6611ZM95.3779 60.9037V57.2287H95.8749V60.1477L98.3319 57.2287H98.7729V60.9037H98.2759V57.9777L95.8259 60.9037H95.3779ZM100.897 60.9037V57.5297L101.023 57.6627H99.5042V57.2287H102.787V57.6627H101.268L101.394 57.5297V60.9037H100.897ZM105.788 60.9037V60.0917L105.767 59.9587V58.6007C105.767 58.288 105.678 58.0477 105.501 57.8797C105.328 57.7117 105.069 57.6277 104.724 57.6277C104.486 57.6277 104.259 57.6674 104.045 57.7467C103.83 57.826 103.648 57.931 103.499 58.0617L103.275 57.6907C103.461 57.532 103.685 57.4107 103.947 57.3267C104.208 57.238 104.483 57.1937 104.773 57.1937C105.249 57.1937 105.615 57.3127 105.872 57.5507C106.133 57.784 106.264 58.141 106.264 58.6217V60.9037H105.788ZM104.521 60.9387C104.245 60.9387 104.005 60.8944 103.8 60.8057C103.599 60.7124 103.445 60.5864 103.338 60.4277C103.23 60.2644 103.177 60.0777 103.177 59.8677C103.177 59.6764 103.221 59.5037 103.31 59.3497C103.403 59.191 103.552 59.065 103.758 58.9717C103.968 58.8737 104.248 58.8247 104.598 58.8247H105.865V59.1957H104.612C104.257 59.1957 104.01 59.2587 103.87 59.3847C103.734 59.5107 103.667 59.667 103.667 59.8537C103.667 60.0637 103.748 60.2317 103.912 60.3577C104.075 60.4837 104.304 60.5467 104.598 60.5467C104.878 60.5467 105.118 60.4837 105.319 60.3577C105.524 60.227 105.673 60.0404 105.767 59.7977L105.879 60.1407C105.785 60.3834 105.622 60.577 105.389 60.7217C105.16 60.8664 104.871 60.9387 104.521 60.9387Z" fill="#083A7F"/>
<path d="M35 3.85414V7.70825H52.5296H70.0592V3.85414V3.19481e-05H52.5296H35V3.85414ZM40.838 1.71029C41.9884 2.3125 42.4501 3.71764 41.8788 4.88993C41.2919 6.10237 39.9615 6.56808 38.7876 5.98193C37.6686 5.41987 37.1677 4.05488 37.6607 2.90667C37.872 2.40082 38.5294 1.75847 39.0068 1.57379C39.5076 1.38912 40.3371 1.44532 40.838 1.71029ZM46.7307 1.72635C48.4446 2.68988 48.382 5.14687 46.6212 6.02208C46.0812 6.28705 45.2986 6.29508 44.743 6.03814C43.2013 5.31549 42.8492 3.31617 44.0622 2.11176C44.7587 1.41321 45.8699 1.25262 46.7307 1.72635ZM60.2301 1.61394C61.7796 2.20009 62.2256 4.26364 61.0753 5.48411C60.5979 5.99799 60.1049 6.21478 59.4162 6.21478C58.9545 6.21478 58.751 6.17464 58.438 6.02208C57.5459 5.58046 57.0215 4.67314 57.092 3.69355C57.1937 2.07162 58.751 1.04385 60.2301 1.61394ZM66.0211 1.57379C66.522 1.75044 67.1793 2.37673 67.3984 2.90667C67.8993 4.07094 67.3906 5.41987 66.2402 5.99799C65.8802 6.18267 65.6924 6.22281 65.2464 6.22281C64.3073 6.21478 63.603 5.76514 63.1725 4.8819C62.8986 4.31182 62.8595 3.64538 63.063 3.02711C63.2821 2.37673 63.9473 1.74241 64.6594 1.51759C64.9959 1.41321 65.6376 1.43729 66.0211 1.57379Z" fill="#083A7F"/>
<path d="M39.2256 2.80205C38.8578 3.00278 38.6465 3.38819 38.6465 3.86996C38.6465 5.03422 40.1334 5.47584 40.7751 4.49625C41.0255 4.11084 40.9942 3.39622 40.7046 3.08308C40.2977 2.63343 39.7264 2.52102 39.2256 2.80205Z" fill="#083A7F"/>
<path d="M45.1261 2.76199C44.2731 3.1474 44.2888 4.48028 45.1418 4.90584C45.9635 5.30731 46.8165 4.75328 46.8165 3.81384C46.8165 2.96272 45.9243 2.4087 45.1261 2.76199Z" fill="#083A7F"/>
<path d="M58.8059 2.81C57.8668 3.39614 58.1642 4.88961 59.2598 5.03414C59.9797 5.13852 60.6684 4.43193 60.5667 3.69323C60.4571 2.84211 59.5102 2.36838 58.8059 2.81Z" fill="#083A7F"/>
<path d="M64.6996 2.80189C64.3083 3.04277 64.1675 3.26759 64.1284 3.69315C64.0892 4.17491 64.2066 4.50412 64.5196 4.77712C65.1848 5.35523 66.2726 4.92165 66.4213 4.02235C66.4917 3.57271 66.2178 3.00262 65.8344 2.79386C65.4822 2.60918 64.997 2.60918 64.6996 2.80189Z" fill="#083A7F"/>
<path d="M35 19.3505V29.7888H52.5296H70.0592V19.3505V8.91233H52.5296H35V19.3505ZM67.4141 10.9036L67.5941 11.0883V19.4389V27.7975L67.4063 27.95C67.2263 28.1026 66.8819 28.1026 52.5296 28.1026C38.1772 28.1026 37.8329 28.1026 37.6529 27.95L37.4651 27.7975L37.4494 19.5352C37.426 10.6868 37.4103 10.9919 37.8173 10.7832C37.9738 10.7029 41.0023 10.6868 52.6235 10.7029L67.2341 10.7189L67.4141 10.9036Z" fill="#083A7F"/>
<path d="M38.5996 19.3905V26.898H52.5294H66.4591V19.3905V11.883H52.5294H38.5996V19.3905Z" fill="#083A7F"/>
<path d="M35 33.5626V36.132H52.5296H70.0592V33.5626V30.9932H52.5296H35V33.5626Z" fill="#083A7F"/>
<g clip-path="url(#clip0_322_4251)">
<path d="M52.4399 14.8952C52.4057 14.9161 52.3612 14.9634 52.3406 14.9983C52.3047 15.0648 52.3047 15.07 52.3047 16.6453V18.2259L52.5358 18.2189C52.7292 18.2119 52.7943 18.2171 52.9261 18.2486C53.3198 18.3413 53.6554 18.5721 53.8916 18.9095L53.9721 19.0249L54.0388 18.948C54.2785 18.6665 54.4788 18.2451 54.5678 17.8342C54.6209 17.5895 54.6209 17.0947 54.5678 16.8411C54.4616 16.3393 54.2494 15.9232 53.9224 15.577C53.6382 15.2763 53.3164 15.0683 52.9261 14.9354C52.6881 14.8532 52.5307 14.8392 52.4399 14.8952Z" fill="#FE0002"/>
<path d="M52.3405 18.768C52.0444 18.8327 51.7722 19.0512 51.6284 19.3397C51.5428 19.511 51.5137 19.6457 51.5137 19.8502C51.5188 20.3083 51.7773 20.6912 52.2001 20.8608C52.3131 20.9063 52.361 20.915 52.5288 20.922C52.8695 20.936 53.104 20.8451 53.3334 20.6125C53.5594 20.3835 53.6723 20.0845 53.6518 19.7698C53.6073 19.0897 52.9979 18.6229 52.3405 18.768Z" fill="#FE0002"/>
<path d="M50.4134 18.9689C49.5849 19.0546 48.83 19.5983 48.4602 20.3746C48.2873 20.7401 48.2308 20.9726 48.2188 21.3887C48.2103 21.7087 48.2274 21.873 48.2993 22.1458C48.3643 22.3923 48.4465 22.4727 48.6245 22.4587C48.7135 22.4517 48.8009 22.4028 50.0283 21.679C50.749 21.2541 51.343 20.9009 51.3498 20.8939C51.3567 20.8869 51.3276 20.831 51.2848 20.768C51.0965 20.4935 50.9869 20.1491 50.9869 19.8326C50.9869 19.6158 51.0811 19.2277 51.1684 19.0948C51.1821 19.0703 51.1906 19.0424 51.1872 19.0284C51.1684 18.9794 50.6736 18.9409 50.4134 18.9689Z" fill="#FE0002"/>
<path d="M54.0354 20.5005C53.8146 21.0251 53.2856 21.408 52.7138 21.4604L52.582 21.4727L52.618 21.5706C52.8902 22.3416 53.5099 22.9221 54.2905 23.1354C54.7339 23.2578 55.3005 23.2403 55.7302 23.0934C56.2198 22.9273 56.8172 22.464 56.8532 22.2262C56.8651 22.1458 56.8223 22.0234 56.7641 21.971C56.7179 21.9307 54.121 20.4009 54.097 20.4009C54.0868 20.4009 54.0594 20.4463 54.0354 20.5005Z" fill="#FE0002"/>
</g>
<defs>
<clipPath id="clip0_322_4251">
<rect width="8.76479" height="8.95185" fill="white" transform="translate(48.1465 14.5612)"/>
</clipPath>
</defs>
</svg>
