<svg width="108" height="63" viewBox="0 0 108 63" fill="none" xmlns="http://www.w3.org/2000/svg">
<path d="M24.45 50.5056V44.2856L24.76 44.6056H22.14V43.5056H28.06V44.6056H25.44L25.74 44.2856V50.5056H24.45ZM33.4601 49.9056V44.6056H30.7201L30.6701 45.8456C30.6501 46.3123 30.6201 46.7556 30.5801 47.1756C30.5467 47.5889 30.4901 47.9656 30.4101 48.3056C30.3367 48.6456 30.2334 48.9289 30.1001 49.1556C29.9667 49.3823 29.8034 49.5323 29.6101 49.6056L28.2101 49.4056C28.4634 49.4189 28.6701 49.3323 28.8301 49.1456C28.9967 48.9589 29.1267 48.6989 29.2201 48.3656C29.3134 48.0323 29.3834 47.6423 29.4301 47.1956C29.4767 46.7423 29.5101 46.2523 29.5301 45.7256L29.6101 43.5056H34.7401V49.9056H33.4601ZM27.9701 51.9956L27.9801 49.4056H35.7501V51.9956H34.5501V50.5056H29.1801V51.9956H27.9701ZM39.0478 43.5056H40.5478L42.1978 45.8456L43.8478 43.5056H45.3678L43.0178 46.8656L45.5578 50.5056H44.0178L42.1978 47.9556L40.3878 50.5056H38.8878L41.4178 46.9156L39.0478 43.5056ZM49.6577 50.6056C49.1111 50.6056 48.6077 50.5156 48.1477 50.3356C47.6877 50.1556 47.2877 49.9056 46.9477 49.5856C46.6077 49.2589 46.3444 48.8789 46.1577 48.4456C45.9711 48.0056 45.8777 47.5256 45.8777 47.0056C45.8777 46.4856 45.9711 46.0089 46.1577 45.5756C46.3444 45.1356 46.6077 44.7556 46.9477 44.4356C47.2877 44.1089 47.6877 43.8556 48.1477 43.6756C48.6077 43.4956 49.1077 43.4056 49.6477 43.4056C50.1944 43.4056 50.6944 43.4956 51.1477 43.6756C51.6077 43.8556 52.0077 44.1089 52.3477 44.4356C52.6877 44.7556 52.9511 45.1356 53.1377 45.5756C53.3244 46.0089 53.4177 46.4856 53.4177 47.0056C53.4177 47.5256 53.3244 48.0056 53.1377 48.4456C52.9511 48.8856 52.6877 49.2656 52.3477 49.5856C52.0077 49.9056 51.6077 50.1556 51.1477 50.3356C50.6944 50.5156 50.1977 50.6056 49.6577 50.6056ZM49.6477 49.4656C50.0011 49.4656 50.3277 49.4056 50.6277 49.2856C50.9277 49.1656 51.1877 48.9956 51.4077 48.7756C51.6277 48.5489 51.7977 48.2889 51.9177 47.9956C52.0444 47.6956 52.1077 47.3656 52.1077 47.0056C52.1077 46.6456 52.0444 46.3189 51.9177 46.0256C51.7977 45.7256 51.6277 45.4656 51.4077 45.2456C51.1877 45.0189 50.9277 44.8456 50.6277 44.7256C50.3277 44.6056 50.0011 44.5456 49.6477 44.5456C49.2944 44.5456 48.9677 44.6056 48.6677 44.7256C48.3744 44.8456 48.1144 45.0189 47.8877 45.2456C47.6677 45.4656 47.4944 45.7256 47.3677 46.0256C47.2477 46.3189 47.1877 46.6456 47.1877 47.0056C47.1877 47.3589 47.2477 47.6856 47.3677 47.9856C47.4944 48.2856 47.6677 48.5489 47.8877 48.7756C48.1077 48.9956 48.3677 49.1656 48.6677 49.2856C48.9677 49.4056 49.2944 49.4656 49.6477 49.4656ZM54.855 50.5056V43.5056H57.735C58.355 43.5056 58.885 43.6056 59.325 43.8056C59.7717 44.0056 60.115 44.2923 60.355 44.6656C60.595 45.0389 60.715 45.4823 60.715 45.9956C60.715 46.5089 60.595 46.9523 60.355 47.3256C60.115 47.6989 59.7717 47.9856 59.325 48.1856C58.885 48.3856 58.355 48.4856 57.735 48.4856H55.575L56.155 47.8756V50.5056H54.855ZM56.155 48.0156L55.575 47.3856H57.675C58.2483 47.3856 58.6783 47.2656 58.965 47.0256C59.2583 46.7789 59.405 46.4356 59.405 45.9956C59.405 45.5489 59.2583 45.2056 58.965 44.9656C58.6783 44.7256 58.2483 44.6056 57.675 44.6056H55.575L56.155 43.9656V48.0156ZM63.1448 46.4156H66.6248V47.4856H63.1448V46.4156ZM63.2448 49.4156H67.1948V50.5056H61.9448V43.5056H67.0548V44.5956H63.2448V49.4156ZM73.2741 50.5056L70.9041 47.0956L71.9541 46.4456L74.7441 50.5056H73.2741ZM68.6441 50.5056V43.5056H69.9241V50.5056H68.6441ZM69.5341 47.5556V46.4356H71.8941V47.5556H69.5341ZM72.0741 47.1556L70.8841 46.9956L73.2741 43.5056H74.6541L72.0741 47.1556ZM74.6193 50.5056L77.7693 43.5056H79.0493L82.2093 50.5056H80.8493L78.1393 44.1956H78.6593L75.9593 50.5056H74.6193ZM76.0693 48.8856L76.4193 47.8656H80.1993L80.5493 48.8856H76.0693Z" fill="white"/>
<path d="M2.219 60.9386C1.86433 60.9386 1.54467 60.8592 1.26 60.7006C0.98 60.5372 0.758333 60.3156 0.595 60.0356C0.431667 59.7509 0.35 59.4266 0.35 59.0626C0.35 58.6939 0.431667 58.3696 0.595 58.0896C0.758333 57.8096 0.98 57.5902 1.26 57.4316C1.54 57.2729 1.85967 57.1936 2.219 57.1936C2.583 57.1936 2.905 57.2729 3.185 57.4316C3.46967 57.5902 3.69133 57.8096 3.85 58.0896C4.01333 58.3696 4.095 58.6939 4.095 59.0626C4.095 59.4266 4.01333 59.7509 3.85 60.0356C3.69133 60.3156 3.46967 60.5372 3.185 60.7006C2.90033 60.8592 2.57833 60.9386 2.219 60.9386ZM2.219 60.4976C2.485 60.4976 2.72067 60.4392 2.926 60.3226C3.13133 60.2012 3.29233 60.0332 3.409 59.8186C3.53033 59.5992 3.591 59.3472 3.591 59.0626C3.591 58.7732 3.53033 58.5212 3.409 58.3066C3.29233 58.0919 3.13133 57.9262 2.926 57.8096C2.72067 57.6882 2.48733 57.6276 2.226 57.6276C1.96467 57.6276 1.73133 57.6882 1.526 57.8096C1.32067 57.9262 1.15733 58.0919 1.036 58.3066C0.914667 58.5212 0.854 58.7732 0.854 59.0626C0.854 59.3472 0.914667 59.5992 1.036 59.8186C1.15733 60.0332 1.32067 60.2012 1.526 60.3226C1.73133 60.4392 1.96233 60.4976 2.219 60.4976ZM6.8092 60.9456C6.51053 60.9456 6.24453 60.8966 6.0112 60.7986C5.78253 60.7006 5.58653 60.5512 5.4232 60.3506C5.25986 60.1499 5.1362 59.9026 5.0522 59.6086C4.9682 59.3099 4.9262 58.9646 4.9262 58.5726C4.9262 58.2226 4.95886 57.9169 5.0242 57.6556C5.08953 57.3896 5.18053 57.1609 5.2972 56.9696C5.41386 56.7782 5.5492 56.6172 5.7032 56.4866C5.86186 56.3512 6.0322 56.2439 6.2142 56.1646C6.40086 56.0806 6.5922 56.0176 6.7882 55.9756L8.4402 55.5906L8.5242 56.0526L6.9702 56.4026C6.8722 56.4259 6.7532 56.4586 6.6132 56.5006C6.47786 56.5426 6.33786 56.6056 6.1932 56.6896C6.0532 56.7736 5.92253 56.8902 5.8012 57.0396C5.67986 57.1889 5.58186 57.3826 5.5072 57.6206C5.4372 57.8539 5.4022 58.1456 5.4022 58.4956C5.4022 58.5702 5.40453 58.6309 5.4092 58.6776C5.41386 58.7196 5.41853 58.7662 5.4232 58.8176C5.43253 58.8642 5.43953 58.9342 5.4442 59.0276L5.2272 58.8456C5.27853 58.5609 5.38353 58.3136 5.5422 58.1036C5.70086 57.8889 5.8992 57.7232 6.1372 57.6066C6.37986 57.4852 6.6482 57.4246 6.9422 57.4246C7.28286 57.4246 7.5862 57.4992 7.8522 57.6486C8.1182 57.7932 8.32586 57.9962 8.4752 58.2576C8.6292 58.5189 8.7062 58.8222 8.7062 59.1676C8.7062 59.5082 8.62686 59.8139 8.4682 60.0846C8.3142 60.3552 8.09486 60.5676 7.8102 60.7216C7.52553 60.8709 7.19186 60.9456 6.8092 60.9456ZM6.8652 60.5326C7.12653 60.5326 7.35753 60.4742 7.5582 60.3576C7.75886 60.2362 7.9152 60.0729 8.0272 59.8676C8.14386 59.6622 8.2022 59.4312 8.2022 59.1746C8.2022 58.9226 8.14386 58.6986 8.0272 58.5026C7.9152 58.3066 7.75886 58.1526 7.5582 58.0406C7.35753 57.9239 7.1242 57.8656 6.8582 57.8656C6.59686 57.8656 6.36586 57.9216 6.1652 58.0336C5.96453 58.1409 5.80586 58.2926 5.6892 58.4886C5.5772 58.6846 5.5212 58.9109 5.5212 59.1676C5.5212 59.4242 5.5772 59.6552 5.6892 59.8606C5.80586 60.0659 5.96453 60.2292 6.1652 60.3506C6.37053 60.4719 6.60386 60.5326 6.8652 60.5326ZM11.2835 60.9386C10.9288 60.9386 10.6091 60.8592 10.3245 60.7006C10.0445 60.5372 9.82279 60.3156 9.65945 60.0356C9.49612 59.7509 9.41445 59.4266 9.41445 59.0626C9.41445 58.6939 9.49612 58.3696 9.65945 58.0896C9.82279 57.8096 10.0445 57.5902 10.3245 57.4316C10.6045 57.2729 10.9241 57.1936 11.2835 57.1936C11.6475 57.1936 11.9695 57.2729 12.2495 57.4316C12.5341 57.5902 12.7558 57.8096 12.9145 58.0896C13.0778 58.3696 13.1595 58.6939 13.1595 59.0626C13.1595 59.4266 13.0778 59.7509 12.9145 60.0356C12.7558 60.3156 12.5341 60.5372 12.2495 60.7006C11.9648 60.8592 11.6428 60.9386 11.2835 60.9386ZM11.2835 60.4976C11.5495 60.4976 11.7851 60.4392 11.9905 60.3226C12.1958 60.2012 12.3568 60.0332 12.4735 59.8186C12.5948 59.5992 12.6555 59.3472 12.6555 59.0626C12.6555 58.7732 12.5948 58.5212 12.4735 58.3066C12.3568 58.0919 12.1958 57.9262 11.9905 57.8096C11.7851 57.6882 11.5518 57.6276 11.2905 57.6276C11.0291 57.6276 10.7958 57.6882 10.5905 57.8096C10.3851 57.9262 10.2218 58.0919 10.1005 58.3066C9.97912 58.5212 9.91845 58.7732 9.91845 59.0626C9.91845 59.3472 9.97912 59.5992 10.1005 59.8186C10.2218 60.0332 10.3851 60.2012 10.5905 60.3226C10.7958 60.4392 11.0268 60.4976 11.2835 60.4976ZM16.1186 60.9386C15.8013 60.9386 15.5143 60.8662 15.2576 60.7216C15.001 60.5722 14.7956 60.3599 14.6416 60.0846C14.4923 59.8046 14.4176 59.4639 14.4176 59.0626C14.4176 58.6612 14.4923 58.3229 14.6416 58.0476C14.791 57.7676 14.994 57.5552 15.2506 57.4106C15.5073 57.2659 15.7966 57.1936 16.1186 57.1936C16.4686 57.1936 16.7813 57.2729 17.0566 57.4316C17.3366 57.5856 17.556 57.8049 17.7146 58.0896C17.8733 58.3696 17.9526 58.6939 17.9526 59.0626C17.9526 59.4359 17.8733 59.7626 17.7146 60.0426C17.556 60.3226 17.3366 60.5419 17.0566 60.7006C16.7813 60.8592 16.4686 60.9386 16.1186 60.9386ZM14.2216 62.2616V57.2286H14.6976V58.3346L14.6486 59.0696L14.7186 59.8116V62.2616H14.2216ZM16.0836 60.4976C16.345 60.4976 16.5783 60.4392 16.7836 60.3226C16.989 60.2012 17.1523 60.0332 17.2736 59.8186C17.395 59.5992 17.4556 59.3472 17.4556 59.0626C17.4556 58.7779 17.395 58.5282 17.2736 58.3136C17.1523 58.0989 16.989 57.9309 16.7836 57.8096C16.5783 57.6882 16.345 57.6276 16.0836 57.6276C15.8223 57.6276 15.5866 57.6882 15.3766 57.8096C15.1713 57.9309 15.008 58.0989 14.8866 58.3136C14.77 58.5282 14.7116 58.7779 14.7116 59.0626C14.7116 59.3472 14.77 59.5992 14.8866 59.8186C15.008 60.0332 15.1713 60.2012 15.3766 60.3226C15.5866 60.4392 15.8223 60.4976 16.0836 60.4976ZM18.9809 62.2966C18.8083 62.2966 18.6426 62.2686 18.4839 62.2126C18.3299 62.1566 18.1969 62.0726 18.0849 61.9606L18.3159 61.5896C18.4093 61.6782 18.5096 61.7459 18.6169 61.7926C18.7289 61.8439 18.8526 61.8696 18.9879 61.8696C19.1513 61.8696 19.2913 61.8229 19.4079 61.7296C19.5293 61.6409 19.6436 61.4822 19.7509 61.2536L19.9889 60.7146L20.0449 60.6376L21.5569 57.2286H22.0469L20.2059 61.3446C20.1033 61.5826 19.9889 61.7716 19.8629 61.9116C19.7416 62.0516 19.6086 62.1496 19.4639 62.2056C19.3193 62.2662 19.1583 62.2966 18.9809 62.2966ZM19.9609 61.0086L18.2669 57.2286H18.7849L20.2829 60.6026L19.9609 61.0086ZM25.184 60.6656V57.6626H23.413L23.371 58.4816C23.3617 58.7289 23.3454 58.9716 23.322 59.2096C23.3034 59.4476 23.2684 59.6669 23.217 59.8676C23.1704 60.0636 23.1027 60.2246 23.014 60.3506C22.9254 60.4719 22.811 60.5419 22.671 60.5606L22.174 60.4696C22.3187 60.4742 22.4377 60.4229 22.531 60.3156C22.6244 60.2036 22.6967 60.0519 22.748 59.8606C22.7994 59.6692 22.8367 59.4522 22.86 59.2096C22.8834 58.9622 22.902 58.7102 22.916 58.4536L22.965 57.2286H25.681V60.6656H25.184ZM22.02 61.7926V60.4696H26.255V61.7926H25.786V60.9036H22.489V61.7926H22.02ZM28.7356 60.9386C28.3809 60.9386 28.0613 60.8592 27.7766 60.7006C27.4966 60.5372 27.2749 60.3156 27.1116 60.0356C26.9483 59.7509 26.8666 59.4266 26.8666 59.0626C26.8666 58.6939 26.9483 58.3696 27.1116 58.0896C27.2749 57.8096 27.4966 57.5902 27.7766 57.4316C28.0566 57.2729 28.3763 57.1936 28.7356 57.1936C29.0996 57.1936 29.4216 57.2729 29.7016 57.4316C29.9863 57.5902 30.2079 57.8096 30.3666 58.0896C30.5299 58.3696 30.6116 58.6939 30.6116 59.0626C30.6116 59.4266 30.5299 59.7509 30.3666 60.0356C30.2079 60.3156 29.9863 60.5372 29.7016 60.7006C29.4169 60.8592 29.0949 60.9386 28.7356 60.9386ZM28.7356 60.4976C29.0016 60.4976 29.2373 60.4392 29.4426 60.3226C29.6479 60.2012 29.8089 60.0332 29.9256 59.8186C30.0469 59.5992 30.1076 59.3472 30.1076 59.0626C30.1076 58.7732 30.0469 58.5212 29.9256 58.3066C29.8089 58.0919 29.6479 57.9262 29.4426 57.8096C29.2373 57.6882 29.0039 57.6276 28.7426 57.6276C28.4813 57.6276 28.2479 57.6882 28.0426 57.8096C27.8373 57.9262 27.6739 58.0919 27.5526 58.3066C27.4313 58.5212 27.3706 58.7732 27.3706 59.0626C27.3706 59.3472 27.4313 59.5992 27.5526 59.8186C27.6739 60.0332 27.8373 60.2012 28.0426 60.3226C28.2479 60.4392 28.4789 60.4976 28.7356 60.4976ZM31.6738 60.9036V57.2286H33.2978C33.7131 57.2286 34.0398 57.3079 34.2778 57.4666C34.5205 57.6252 34.6418 57.8586 34.6418 58.1666C34.6418 58.4652 34.5275 58.6962 34.2988 58.8596C34.0701 59.0182 33.7691 59.0976 33.3958 59.0976L33.4938 58.9506C33.9325 58.9506 34.2545 59.0322 34.4598 59.1956C34.6651 59.3589 34.7678 59.5946 34.7678 59.9026C34.7678 60.2199 34.6511 60.4672 34.4178 60.6446C34.1891 60.8172 33.8321 60.9036 33.3468 60.9036H31.6738ZM32.1568 60.5116H33.3258C33.6385 60.5116 33.8741 60.4626 34.0328 60.3646C34.1961 60.2619 34.2778 60.0986 34.2778 59.8746C34.2778 59.6506 34.2055 59.4872 34.0608 59.3846C33.9161 59.2819 33.6875 59.2306 33.3748 59.2306H32.1568V60.5116ZM32.1568 58.8596H33.2628C33.5475 58.8596 33.7645 58.8059 33.9138 58.6986C34.0678 58.5912 34.1448 58.4349 34.1448 58.2296C34.1448 58.0242 34.0678 57.8702 33.9138 57.7676C33.7645 57.6649 33.5475 57.6136 33.2628 57.6136H32.1568V58.8596ZM38.2146 60.9036V60.0916L38.1936 59.9586V58.6006C38.1936 58.2879 38.1049 58.0476 37.9276 57.8796C37.7549 57.7116 37.4959 57.6276 37.1506 57.6276C36.9126 57.6276 36.6863 57.6672 36.4716 57.7466C36.2569 57.8259 36.0749 57.9309 35.9256 58.0616L35.7016 57.6906C35.8883 57.5319 36.1123 57.4106 36.3736 57.3266C36.6349 57.2379 36.9103 57.1936 37.1996 57.1936C37.6756 57.1936 38.0419 57.3126 38.2986 57.5506C38.5599 57.7839 38.6906 58.1409 38.6906 58.6216V60.9036H38.2146ZM36.9476 60.9386C36.6723 60.9386 36.4319 60.8942 36.2266 60.8056C36.0259 60.7122 35.8719 60.5862 35.7646 60.4276C35.6573 60.2642 35.6036 60.0776 35.6036 59.8676C35.6036 59.6762 35.6479 59.5036 35.7366 59.3496C35.8299 59.1909 35.9793 59.0649 36.1846 58.9716C36.3946 58.8736 36.6746 58.8246 37.0246 58.8246H38.2916V59.1956H37.0386C36.6839 59.1956 36.4366 59.2586 36.2966 59.3846C36.1613 59.5106 36.0936 59.6669 36.0936 59.8536C36.0936 60.0636 36.1753 60.2316 36.3386 60.3576C36.5019 60.4836 36.7306 60.5466 37.0246 60.5466C37.3046 60.5466 37.5449 60.4836 37.7456 60.3576C37.9509 60.2269 38.1003 60.0402 38.1936 59.7976L38.3056 60.1406C38.2123 60.3832 38.0489 60.5769 37.8156 60.7216C37.5869 60.8662 37.2976 60.9386 36.9476 60.9386ZM40.0136 60.9036V57.2286H40.5106V58.8526H42.8276V57.2286H43.3246V60.9036H42.8276V59.2796H40.5106V60.9036H40.0136ZM44.7373 60.9036V57.2286H45.2343V60.1476L47.6913 57.2286H48.1323V60.9036H47.6353V57.9776L45.1853 60.9036H44.7373ZM51.1316 60.9386C50.7489 60.9386 50.4129 60.8592 50.1236 60.7006C49.8343 60.5372 49.6079 60.3156 49.4446 60.0356C49.2813 59.7509 49.1996 59.4266 49.1996 59.0626C49.1996 58.6986 49.2766 58.3766 49.4306 58.0966C49.5893 57.8166 49.8039 57.5972 50.0746 57.4386C50.3499 57.2752 50.6579 57.1936 50.9986 57.1936C51.3439 57.1936 51.6496 57.2729 51.9156 57.4316C52.1863 57.5856 52.3986 57.8049 52.5526 58.0896C52.7066 58.3696 52.7836 58.6939 52.7836 59.0626C52.7836 59.0859 52.7813 59.1116 52.7766 59.1396C52.7766 59.1629 52.7766 59.1886 52.7766 59.2166H49.5776V58.8456H52.5106L52.3146 58.9926C52.3146 58.7266 52.2563 58.4909 52.1396 58.2856C52.0276 58.0756 51.8736 57.9122 51.6776 57.7956C51.4816 57.6789 51.2553 57.6206 50.9986 57.6206C50.7466 57.6206 50.5203 57.6789 50.3196 57.7956C50.1189 57.9122 49.9626 58.0756 49.8506 58.2856C49.7386 58.4956 49.6826 58.7359 49.6826 59.0066V59.0836C49.6826 59.3636 49.7433 59.6109 49.8646 59.8256C49.9906 60.0356 50.1633 60.2012 50.3826 60.3226C50.6066 60.4392 50.8609 60.4976 51.1456 60.4976C51.3696 60.4976 51.5773 60.4579 51.7686 60.3786C51.9646 60.2992 52.1326 60.1779 52.2726 60.0146L52.5526 60.3366C52.3893 60.5326 52.1839 60.6819 51.9366 60.7846C51.6939 60.8872 51.4256 60.9386 51.1316 60.9386ZM58.2358 60.6656V57.6626H56.4648L56.4228 58.4816C56.4135 58.7289 56.3971 58.9716 56.3738 59.2096C56.3551 59.4476 56.3201 59.6669 56.2688 59.8676C56.2221 60.0636 56.1545 60.2246 56.0658 60.3506C55.9771 60.4719 55.8628 60.5419 55.7228 60.5606L55.2258 60.4696C55.3705 60.4742 55.4895 60.4229 55.5828 60.3156C55.6761 60.2036 55.7485 60.0519 55.7998 59.8606C55.8511 59.6692 55.8885 59.4522 55.9118 59.2096C55.9351 58.9622 55.9538 58.7102 55.9678 58.4536L56.0168 57.2286H58.7328V60.6656H58.2358ZM55.0718 61.7926V60.4696H59.3068V61.7926H58.8378V60.9036H55.5408V61.7926H55.0718ZM59.6034 60.8966L59.6384 60.4696C59.671 60.4742 59.7014 60.4812 59.7294 60.4906C59.762 60.4952 59.79 60.4976 59.8134 60.4976C59.9627 60.4976 60.0817 60.4416 60.1704 60.3296C60.2637 60.2176 60.3337 60.0682 60.3804 59.8816C60.427 59.6949 60.4597 59.4849 60.4784 59.2516C60.497 59.0136 60.5134 58.7756 60.5274 58.5376L60.5904 57.2286H63.2854V60.9036H62.7884V57.5156L62.9144 57.6626H60.9124L61.0314 57.5086L60.9754 58.5726C60.9614 58.8899 60.9357 59.1932 60.8984 59.4826C60.8657 59.7719 60.812 60.0262 60.7374 60.2456C60.6674 60.4649 60.5694 60.6376 60.4434 60.7636C60.3174 60.8849 60.1564 60.9456 59.9604 60.9456C59.9044 60.9456 59.846 60.9409 59.7854 60.9316C59.7294 60.9222 59.6687 60.9106 59.6034 60.8966ZM67.0712 60.9036V59.5806L67.1622 59.6856H65.9162C65.4449 59.6856 65.0762 59.5829 64.8102 59.3776C64.5442 59.1722 64.4112 58.8736 64.4112 58.4816C64.4112 58.0616 64.5535 57.7489 64.8382 57.5436C65.1229 57.3336 65.5032 57.2286 65.9792 57.2286H67.5262V60.9036H67.0712ZM64.3832 60.9036L65.3912 59.4896H65.9092L64.9222 60.9036H64.3832ZM67.0712 59.4336V57.5156L67.1622 57.6626H65.9932C65.6525 57.6626 65.3865 57.7279 65.1952 57.8586C65.0085 57.9892 64.9152 58.2016 64.9152 58.4956C64.9152 59.0416 65.2629 59.3146 65.9582 59.3146H67.1622L67.0712 59.4336ZM72.2874 60.9386C71.9327 60.9386 71.613 60.8592 71.3284 60.7006C71.0484 60.5372 70.8267 60.3156 70.6634 60.0356C70.5 59.7509 70.4184 59.4266 70.4184 59.0626C70.4184 58.6939 70.5 58.3696 70.6634 58.0896C70.8267 57.8096 71.0484 57.5902 71.3284 57.4316C71.6084 57.2729 71.928 57.1936 72.2874 57.1936C72.6514 57.1936 72.9734 57.2729 73.2534 57.4316C73.538 57.5902 73.7597 57.8096 73.9184 58.0896C74.0817 58.3696 74.1634 58.6939 74.1634 59.0626C74.1634 59.4266 74.0817 59.7509 73.9184 60.0356C73.7597 60.3156 73.538 60.5372 73.2534 60.7006C72.9687 60.8592 72.6467 60.9386 72.2874 60.9386ZM72.2874 60.4976C72.5534 60.4976 72.789 60.4392 72.9944 60.3226C73.1997 60.2012 73.3607 60.0332 73.4774 59.8186C73.5987 59.5992 73.6594 59.3472 73.6594 59.0626C73.6594 58.7732 73.5987 58.5212 73.4774 58.3066C73.3607 58.0919 73.1997 57.9262 72.9944 57.8096C72.789 57.6882 72.5557 57.6276 72.2944 57.6276C72.033 57.6276 71.7997 57.6882 71.5944 57.8096C71.389 57.9262 71.2257 58.0919 71.1044 58.3066C70.983 58.5212 70.9224 58.7732 70.9224 59.0626C70.9224 59.3472 70.983 59.5992 71.1044 59.8186C71.2257 60.0332 71.389 60.2012 71.5944 60.3226C71.7997 60.4392 72.0307 60.4976 72.2874 60.4976ZM76.8776 60.9456C76.5789 60.9456 76.3129 60.8966 76.0796 60.7986C75.8509 60.7006 75.6549 60.5512 75.4916 60.3506C75.3282 60.1499 75.2046 59.9026 75.1206 59.6086C75.0366 59.3099 74.9946 58.9646 74.9946 58.5726C74.9946 58.2226 75.0272 57.9169 75.0926 57.6556C75.1579 57.3896 75.2489 57.1609 75.3656 56.9696C75.4822 56.7782 75.6176 56.6172 75.7716 56.4866C75.9302 56.3512 76.1006 56.2439 76.2826 56.1646C76.4692 56.0806 76.6606 56.0176 76.8566 55.9756L78.5086 55.5906L78.5926 56.0526L77.0386 56.4026C76.9406 56.4259 76.8216 56.4586 76.6816 56.5006C76.5462 56.5426 76.4062 56.6056 76.2616 56.6896C76.1216 56.7736 75.9909 56.8902 75.8696 57.0396C75.7482 57.1889 75.6502 57.3826 75.5756 57.6206C75.5056 57.8539 75.4706 58.1456 75.4706 58.4956C75.4706 58.5702 75.4729 58.6309 75.4776 58.6776C75.4822 58.7196 75.4869 58.7662 75.4916 58.8176C75.5009 58.8642 75.5079 58.9342 75.5126 59.0276L75.2956 58.8456C75.3469 58.5609 75.4519 58.3136 75.6106 58.1036C75.7692 57.8889 75.9676 57.7232 76.2056 57.6066C76.4482 57.4852 76.7166 57.4246 77.0106 57.4246C77.3512 57.4246 77.6546 57.4992 77.9206 57.6486C78.1866 57.7932 78.3942 57.9962 78.5436 58.2576C78.6976 58.5189 78.7746 58.8222 78.7746 59.1676C78.7746 59.5082 78.6952 59.8139 78.5366 60.0846C78.3826 60.3552 78.1632 60.5676 77.8786 60.7216C77.5939 60.8709 77.2602 60.9456 76.8776 60.9456ZM76.9336 60.5326C77.1949 60.5326 77.4259 60.4742 77.6266 60.3576C77.8272 60.2362 77.9836 60.0729 78.0956 59.8676C78.2122 59.6622 78.2706 59.4312 78.2706 59.1746C78.2706 58.9226 78.2122 58.6986 78.0956 58.5026C77.9836 58.3066 77.8272 58.1526 77.6266 58.0406C77.4259 57.9239 77.1926 57.8656 76.9266 57.8656C76.6652 57.8656 76.4342 57.9216 76.2336 58.0336C76.0329 58.1409 75.8742 58.2926 75.7576 58.4886C75.6456 58.6846 75.5896 58.9109 75.5896 59.1676C75.5896 59.4242 75.6456 59.6552 75.7576 59.8606C75.8742 60.0659 76.0329 60.2292 76.2336 60.3506C76.4389 60.4719 76.6722 60.5326 76.9336 60.5326ZM82.2548 60.4696L82.1428 60.6026V57.2286H82.6398V60.6026L82.5068 60.4696H84.5578L84.4248 60.6026V57.2286H84.9218V60.9036H79.8398V57.2286H80.3368V60.6026L80.2108 60.4696H82.2548ZM85.0198 61.7086V60.7706L85.1458 60.9036H84.3968V60.4696H85.4888V61.7086H85.0198ZM87.909 60.9386C87.5263 60.9386 87.1903 60.8592 86.901 60.7006C86.6116 60.5372 86.3853 60.3156 86.222 60.0356C86.0586 59.7509 85.977 59.4266 85.977 59.0626C85.977 58.6986 86.054 58.3766 86.208 58.0966C86.3666 57.8166 86.5813 57.5972 86.852 57.4386C87.1273 57.2752 87.4353 57.1936 87.776 57.1936C88.1213 57.1936 88.427 57.2729 88.693 57.4316C88.9636 57.5856 89.176 57.8049 89.33 58.0896C89.484 58.3696 89.561 58.6939 89.561 59.0626C89.561 59.0859 89.5586 59.1116 89.554 59.1396C89.554 59.1629 89.554 59.1886 89.554 59.2166H86.355V58.8456H89.288L89.092 58.9926C89.092 58.7266 89.0336 58.4909 88.917 58.2856C88.805 58.0756 88.651 57.9122 88.455 57.7956C88.259 57.6789 88.0326 57.6206 87.776 57.6206C87.524 57.6206 87.2976 57.6789 87.097 57.7956C86.8963 57.9122 86.74 58.0756 86.628 58.2856C86.516 58.4956 86.46 58.7359 86.46 59.0066V59.0836C86.46 59.3636 86.5206 59.6109 86.642 59.8256C86.768 60.0356 86.9406 60.2012 87.16 60.3226C87.384 60.4392 87.6383 60.4976 87.923 60.4976C88.147 60.4976 88.3546 60.4579 88.546 60.3786C88.742 60.2992 88.91 60.1779 89.05 60.0146L89.33 60.3366C89.1666 60.5326 88.9613 60.6819 88.714 60.7846C88.4713 60.8872 88.203 60.9386 87.909 60.9386ZM90.6611 60.9036V57.2286H93.9651V60.9036H93.4681V57.5296L93.5941 57.6626H91.0321L91.1581 57.5296V60.9036H90.6611ZM95.3779 60.9036V57.2286H95.8749V60.1476L98.3319 57.2286H98.7729V60.9036H98.2759V57.9776L95.8259 60.9036H95.3779ZM100.897 60.9036V57.5296L101.023 57.6626H99.5042V57.2286H102.787V57.6626H101.268L101.394 57.5296V60.9036H100.897ZM105.788 60.9036V60.0916L105.767 59.9586V58.6006C105.767 58.2879 105.678 58.0476 105.501 57.8796C105.328 57.7116 105.069 57.6276 104.724 57.6276C104.486 57.6276 104.259 57.6672 104.045 57.7466C103.83 57.8259 103.648 57.9309 103.499 58.0616L103.275 57.6906C103.461 57.5319 103.685 57.4106 103.947 57.3266C104.208 57.2379 104.483 57.1936 104.773 57.1936C105.249 57.1936 105.615 57.3126 105.872 57.5506C106.133 57.7839 106.264 58.1409 106.264 58.6216V60.9036H105.788ZM104.521 60.9386C104.245 60.9386 104.005 60.8942 103.8 60.8056C103.599 60.7122 103.445 60.5862 103.338 60.4276C103.23 60.2642 103.177 60.0776 103.177 59.8676C103.177 59.6762 103.221 59.5036 103.31 59.3496C103.403 59.1909 103.552 59.0649 103.758 58.9716C103.968 58.8736 104.248 58.8246 104.598 58.8246H105.865V59.1956H104.612C104.257 59.1956 104.01 59.2586 103.87 59.3846C103.734 59.5106 103.667 59.6669 103.667 59.8536C103.667 60.0636 103.748 60.2316 103.912 60.3576C104.075 60.4836 104.304 60.5466 104.598 60.5466C104.878 60.5466 105.118 60.4836 105.319 60.3576C105.524 60.2269 105.673 60.0402 105.767 59.7976L105.879 60.1406C105.785 60.3832 105.622 60.5769 105.389 60.7216C105.16 60.8662 104.871 60.9386 104.521 60.9386Z" fill="white"/>
<path d="M35 3.85414V7.70825H52.5296H70.0592V3.85414V3.19481e-05H52.5296H35V3.85414ZM40.838 1.71029C41.9884 2.3125 42.4501 3.71764 41.8788 4.88993C41.2919 6.10237 39.9615 6.56808 38.7876 5.98193C37.6686 5.41987 37.1677 4.05488 37.6607 2.90667C37.872 2.40082 38.5294 1.75847 39.0068 1.57379C39.5076 1.38912 40.3371 1.44532 40.838 1.71029ZM46.7307 1.72635C48.4446 2.68988 48.382 5.14687 46.6212 6.02208C46.0812 6.28705 45.2986 6.29508 44.743 6.03814C43.2013 5.31549 42.8492 3.31617 44.0622 2.11176C44.7587 1.41321 45.8699 1.25262 46.7307 1.72635ZM60.2301 1.61394C61.7796 2.20009 62.2256 4.26364 61.0753 5.48411C60.5979 5.99799 60.1049 6.21478 59.4162 6.21478C58.9545 6.21478 58.751 6.17464 58.438 6.02208C57.5459 5.58046 57.0215 4.67314 57.092 3.69355C57.1937 2.07162 58.751 1.04385 60.2301 1.61394ZM66.0211 1.57379C66.522 1.75044 67.1793 2.37673 67.3984 2.90667C67.8993 4.07094 67.3906 5.41987 66.2402 5.99799C65.8802 6.18267 65.6924 6.22281 65.2464 6.22281C64.3073 6.21478 63.603 5.76514 63.1725 4.8819C62.8986 4.31182 62.8595 3.64538 63.063 3.02711C63.2821 2.37673 63.9473 1.74241 64.6594 1.51759C64.9959 1.41321 65.6376 1.43729 66.0211 1.57379Z" fill="white"/>
<path d="M39.2256 2.80205C38.8578 3.00278 38.6465 3.38819 38.6465 3.86996C38.6465 5.03422 40.1334 5.47584 40.7751 4.49625C41.0255 4.11084 40.9942 3.39622 40.7046 3.08308C40.2977 2.63343 39.7264 2.52102 39.2256 2.80205Z" fill="white"/>
<path d="M45.1261 2.76211C44.2731 3.14752 44.2888 4.4804 45.1418 4.90596C45.9635 5.30743 46.8165 4.7534 46.8165 3.81396C46.8165 2.96285 45.9243 2.40882 45.1261 2.76211Z" fill="white"/>
<path d="M58.8059 2.81C57.8668 3.39614 58.1642 4.88961 59.2598 5.03414C59.9797 5.13852 60.6684 4.43193 60.5667 3.69323C60.4571 2.84211 59.5102 2.36838 58.8059 2.81Z" fill="white"/>
<path d="M64.6996 2.80183C64.3083 3.04271 64.1675 3.26753 64.1284 3.69309C64.0892 4.17485 64.2066 4.50406 64.5196 4.77706C65.1848 5.35517 66.2726 4.92159 66.4213 4.02229C66.4917 3.57265 66.2178 3.00256 65.8344 2.7938C65.4822 2.60912 64.997 2.60912 64.6996 2.80183Z" fill="white"/>
<path d="M35 19.3506V29.7888H52.5296H70.0592V19.3506V8.91239H52.5296H35V19.3506ZM67.4141 10.9037L67.5941 11.0884V19.4389V27.7975L67.4063 27.9501C67.2263 28.1026 66.8819 28.1026 52.5296 28.1026C38.1772 28.1026 37.8329 28.1026 37.6529 27.9501L37.4651 27.7975L37.4494 19.5353C37.426 10.6869 37.4103 10.992 37.8173 10.7832C37.9738 10.7029 41.0023 10.6869 52.6235 10.7029L67.2341 10.719L67.4141 10.9037Z" fill="white"/>
<path d="M38.5996 19.3907V26.8982H52.5294H66.4591V19.3907V11.8832H52.5294H38.5996V19.3907Z" fill="white"/>
<path d="M35 33.5627V36.1321H52.5296H70.0592V33.5627V30.9933H52.5296H35V33.5627Z" fill="white"/>
<g clip-path="url(#clip0_322_4311)">
<path d="M52.4399 14.8952C52.4057 14.9161 52.3612 14.9634 52.3406 14.9983C52.3047 15.0648 52.3047 15.07 52.3047 16.6453V18.2259L52.5358 18.2189C52.7292 18.2119 52.7943 18.2171 52.9261 18.2486C53.3198 18.3413 53.6554 18.5721 53.8916 18.9095L53.9721 19.0249L54.0388 18.948C54.2785 18.6665 54.4788 18.2451 54.5678 17.8342C54.6209 17.5895 54.6209 17.0947 54.5678 16.8411C54.4616 16.3393 54.2494 15.9232 53.9224 15.577C53.6382 15.2763 53.3164 15.0683 52.9261 14.9354C52.6881 14.8532 52.5307 14.8392 52.4399 14.8952Z" fill="#FE0002"/>
<path d="M52.3405 18.7679C52.0444 18.8326 51.7722 19.0512 51.6284 19.3396C51.5428 19.511 51.5137 19.6456 51.5137 19.8502C51.5188 20.3083 51.7773 20.6912 52.2001 20.8608C52.3131 20.9062 52.361 20.915 52.5288 20.922C52.8695 20.9359 53.104 20.845 53.3334 20.6125C53.5594 20.3834 53.6723 20.0845 53.6518 19.7698C53.6073 19.0896 52.9979 18.6228 52.3405 18.7679Z" fill="#FE0002"/>
<path d="M50.4134 18.9689C49.5849 19.0545 48.83 19.5983 48.4602 20.3746C48.2873 20.74 48.2308 20.9725 48.2188 21.3887C48.2103 21.7086 48.2274 21.873 48.2993 22.1457C48.3643 22.3922 48.4465 22.4727 48.6245 22.4587C48.7135 22.4517 48.8009 22.4027 50.0283 21.6789C50.749 21.254 51.343 20.9008 51.3498 20.8939C51.3567 20.8869 51.3276 20.8309 51.2848 20.768C51.0965 20.4935 50.9869 20.149 50.9869 19.8326C50.9869 19.6158 51.0811 19.2276 51.1684 19.0947C51.1821 19.0703 51.1906 19.0423 51.1872 19.0283C51.1684 18.9793 50.6736 18.9409 50.4134 18.9689Z" fill="#FE0002"/>
<path d="M54.0354 20.5005C53.8146 21.025 53.2856 21.4079 52.7138 21.4604L52.582 21.4726L52.618 21.5705C52.8902 22.3416 53.5099 22.922 54.2905 23.1353C54.7339 23.2577 55.3005 23.2402 55.7302 23.0934C56.2198 22.9273 56.8172 22.4639 56.8532 22.2262C56.8651 22.1457 56.8223 22.0233 56.7641 21.9709C56.7179 21.9307 54.121 20.4008 54.097 20.4008C54.0868 20.4008 54.0594 20.4463 54.0354 20.5005Z" fill="#FE0002"/>
</g>
<defs>
<clipPath id="clip0_322_4311">
<rect width="8.76479" height="8.95185" fill="white" transform="translate(48.1465 14.561)"/>
</clipPath>
</defs>
</svg>
