<?xml version="1.0" encoding="utf-8"?><svg viewBox="0 0 98 98" xmlns="http://www.w3.org/2000/svg" xmlns:xlink="http://www.w3.org/1999/xlink"><style>:root>svg{display:none}:root>svg:target{display:block}</style><svg viewBox="0 0 16 16" id="arrow-angle-down" xmlns="http://www.w3.org/2000/svg"><path clip-rule="evenodd" d="M13.138 5.529c.26.26.26.682 0 .943l-4.667 4.666a.667.667 0 01-.942 0L2.862 6.472a.667.667 0 11.943-.943L8 9.724l4.195-4.195c.26-.26.683-.26.943 0z"/></svg><svg viewBox="0 0 24 24" id="btn-next" xmlns="http://www.w3.org/2000/svg"><path clip-rule="evenodd" d="M19.707 8.293a1 1 0 010 1.414l-7 7a1 1 0 01-1.414 0l-7-7a1 1 0 111.414-1.414L12 14.586l6.293-6.293a1 1 0 011.414 0z"/></svg><svg viewBox="0 0 24 24" id="btn-prev" xmlns="http://www.w3.org/2000/svg"><path clip-rule="evenodd" d="M19.707 15.707a1 1 0 000-1.414l-7-7a1 1 0 00-1.414 0l-7 7a1 1 0 101.414 1.414L12 9.414l6.293 6.293a1 1 0 001.414 0z"/></svg><svg viewBox="0 0 24 24" id="cart" xmlns="http://www.w3.org/2000/svg"><g clip-path="url(#da)"><path d="M24 3H4.242L4.2 2.649A3 3 0 001.222 0H0v2h1.222a1 1 0 01.993.883L3.8 16.351A3 3 0 006.778 19H20v-2H6.778a1 1 0 01-.993-.884L5.654 15h16.182L24 3zm-3.836 10H5.419l-.941-8h17.129l-1.443 8zM7 24.001a2 2 0 100-4 2 2 0 000 4zm10 0a2 2 0 100-4 2 2 0 000 4z"/></g><defs><clipPath id="da"><path d="M0 0h24v24H0z"/></clipPath></defs></svg><svg viewBox="0 0 24 24" id="close" xmlns="http://www.w3.org/2000/svg"><path d="M.627.13C.22.333.01.699.01 1.19c0 .192.033.37.099.505.07.164 1.208 1.326 5.138 5.256L10.29 12l-5.063 5.068C-.398 22.703-.019 22.276.02 22.904c.032.633.445 1.045 1.077 1.078.627.037.201.416 5.836-5.21L12 13.71l5.073 5.063c5.63 5.625 5.203 5.246 5.831 5.209.633-.033 1.045-.445 1.078-1.078.037-.628.416-.201-5.21-5.831L13.71 12l5.063-5.073c5.625-5.63 5.246-5.204 5.209-5.831C23.948.464 23.537.05 22.904.019c-.628-.038-.201-.417-5.836 5.208L12 10.29 6.95 5.246C3.02 1.316 1.86.178 1.696.108 1.382-.038.941-.024.627.13z"/></svg><svg viewBox="0 0 24 24" id="compare" xmlns="http://www.w3.org/2000/svg"><g clip-path="url(#fa)"><path d="M23 22H3a1 1 0 01-1-1V1a1 1 0 00-2 0v20a3 3 0 003 3h20a1 1 0 000-2z"/><path d="M15 20.001a1 1 0 001-1v-7a1 1 0 10-2 0v7a1 1 0 001 1zm-8 0a1 1 0 001-1v-7a1 1 0 10-2 0v7a1 1 0 001 1zM19 20a1 1 0 001-1V7a1 1 0 10-2 0v12a1 1 0 001 1zm-8 0a1 1 0 001-1V7a1 1 0 00-2 0v12a1 1 0 001 1z"/></g><defs><clipPath id="fa"><path d="M0 0h24v24H0z"/></clipPath></defs></svg><svg viewBox="0 0 15 15" id="home" xmlns="http://www.w3.org/2000/svg"><path d="M13.865 7.398l-5.66-5.657-.38-.38a.461.461 0 00-.65 0l-6.04 6.037a.936.936 0 00-.275.674.947.947 0 00.951.927h.623v4.771h10.133V9h.636a.933.933 0 00.867-.58.932.932 0 00-.205-1.021zm-5.544 5.318H6.68V9.727h1.64v2.989zm3.192-4.771v4.77H9.258v-3.34a.586.586 0 00-.586-.585H6.33a.586.586 0 00-.586.586v3.34H3.488V7.945H2.082l5.42-5.416.338.338 5.08 5.078h-1.407z"/></svg><svg viewBox="0 0 10 9" id="input-check" xmlns="http://www.w3.org/2000/svg"><path d="M1.764 3.805h-.685a.227.227 0 00-.208.139.243.243 0 00.024.238L3.58 7.955c.185.26.55.26.737 0l4.788-6.728A.241.241 0 009.13.988.227.227 0 008.921.85h-.685a.452.452 0 00-.368.196l-3.92 5.506-1.816-2.551a.472.472 0 00-.16-.143.439.439 0 00-.208-.053z"/></svg><svg viewBox="0 0 92 92" id="mail-bg" xmlns="http://www.w3.org/2000/svg"><path d="M90.124 39.674A44.575 44.575 0 001.802 51.792a44.89 44.89 0 0038.266 38.385c1.983.26 3.98.39 5.98.39a44.135 44.135 0 0022.92-6.373 4.311 4.311 0 00.336-7.164 4.315 4.315 0 00-4.787-.225 35.937 35.937 0 11-13.768-66.439A35.938 35.938 0 0179.963 57.77a6.227 6.227 0 01-5.977 4.042 6.434 6.434 0 01-6.425-6.426V28.75a4.313 4.313 0 00-8.625 0v.04a21.562 21.562 0 101.555 33.13 15.02 15.02 0 0013.495 8.518 14.854 14.854 0 0014.128-9.844 44.662 44.662 0 002.01-20.919zM46 58.937a12.937 12.937 0 1112.938-12.938A12.952 12.952 0 0146 58.937z"/></svg><svg viewBox="0 0 98 98" id="phone-bg" xmlns="http://www.w3.org/2000/svg"><path d="M31.662 3.413c-1.767.108-3.11.573-5.696 1.931-4.77 2.53-6.425 3.805-8.644 6.647-5.156 6.566-6.432 16.463-3.636 28.105 2.75 11.339 8.748 23.016 17.025 33.102 1.574 1.917 5.706 6.299 7.374 7.798C49.188 91.048 60.463 94.964 69.95 92.042c2.645-.824 3.927-1.53 7.395-4.06 3.88-2.844 4.787-3.976 5.624-7.129.562-2.138.597-3.238.153-5.18-.446-2.006-.942-2.769-4.709-7.33-4.815-5.838-4.882-5.902-6.098-6.729-2.149-1.46-4.636-2.067-7.267-1.81-1.504.167-2.36.497-6.351 2.453l-3.533 1.732-1.544-1.177c-7.974-6.14-13.502-14.974-15.798-25.217l-.346-1.577 3.06-2.458c1.684-1.333 3.37-2.746 3.728-3.106.85-.885 1.632-2.192 2.198-3.694.87-2.282.792-5.346-.182-7.536-1.854-4.23-5.297-11.243-5.83-11.916-.764-.954-2.255-2.152-3.454-2.763-1.214-.615-3.982-1.204-5.334-1.132zm2.916 7.84c.352.323 1.184 1.911 2.819 5.374 1.268 2.696 2.41 5.299 2.558 5.805.301 1.126.116 2.095-.596 2.945-.27.33-2.14 1.915-4.165 3.53-2.02 1.6-3.895 3.2-4.165 3.53-1.004 1.208-.996 2.48.073 7.153 2.537 11.274 9.02 21.512 18.128 28.623 3.767 2.964 4.914 3.515 6.435 3.123.414-.102 2.662-1.114 4.971-2.257 2.325-1.14 4.557-2.155 4.97-2.257 1.074-.28 2.029-.034 2.918.72.394.349 2.275 2.498 4.166 4.813 2.92 3.54 3.495 4.32 3.645 4.956.236.982-.044 2.304-.64 3.001-.69.823-5.13 3.982-6.34 4.508-8.01 3.53-18.445-.718-29.284-11.95-3.9-4.036-6.842-7.84-10.291-13.307-4.764-7.522-7.636-14.032-9.357-21.1-.925-3.791-1.224-5.798-1.292-8.762-.152-5.64 1.162-10.184 3.936-13.618 1.78-2.191 2.363-2.614 6.858-4.93.808-.405 1.736-.767 2.067-.79.84-.04 1.976.345 2.586.89z"/></svg><svg viewBox="0 0 24 24" id="search" xmlns="http://www.w3.org/2000/svg"><path clip-rule="evenodd" d="M10.875 3.25a7.625 7.625 0 100 15.25 7.625 7.625 0 000-15.25zM1.25 10.875a9.625 9.625 0 1117.098 6.066l4.108 4.101a1 1 0 01-1.412 1.416l-4.111-4.103a9.625 9.625 0 01-15.683-7.48z"/></svg><svg viewBox="0 0 24 24" id="telegram" xmlns="http://www.w3.org/2000/svg"><path d="M21.808.061c-.09.028-1.177.51-2.415 1.069L9.07 5.782C4.635 7.78.902 9.482.781 9.564c-.3.194-.582.52-.695.803-.112.305-.117.825 0 1.119.117.304.507.703.858.88.164.084 1.252.471 2.425.864 1.168.393 2.134.726 2.138.731.005.011.53 1.784 1.168 3.949.638 2.16 1.22 4.053 1.285 4.203.21.46.497.786.886 1.014.324.188.385.204.76.204.478 0 .82-.127 1.191-.443.136-.116.83-.847 1.548-1.622.717-.781 1.317-1.423 1.336-1.429.019-.011.91.82 1.98 1.839 1.345 1.284 2.048 1.916 2.274 2.049.797.47 1.603.332 2.161-.372.436-.548.338-.055 2.204-10.937 1.698-9.874 1.712-9.962 1.698-10.538-.014-.538-.028-.61-.178-.93-.305-.67-.741-.959-1.445-.948-.225 0-.483.028-.567.061zm.746 1.95c0 .282-3.297 19.565-3.405 19.903-.042.133-.127.277-.188.326-.107.078-.126.078-.337-.044-.122-.072-1.75-1.59-3.62-3.367-1.872-1.778-3.405-3.234-3.405-3.24a846.59 846.59 0 013.681-4.64c2.035-2.548 3.724-4.707 3.757-4.802a1.107 1.107 0 00-.113-.858.637.637 0 00-.657-.294c-.13.017-1.158.61-3.263 1.878-7.715 4.663-8.967 5.416-9.018 5.416-.085.005-4.113-1.351-4.113-1.385 0-.016 2.443-1.13 5.43-2.475L17.42 3.866c2.579-1.163 4.755-2.132 4.83-2.154.22-.061.305.022.305.299zM14.76 9.06c-.066.088-1.177 1.489-2.476 3.117-1.295 1.623-2.387 3.035-2.42 3.129-.038.089-.267 1.135-.511 2.326a133.768 133.768 0 01-.483 2.26c-.024.06-.338-.931-.971-3.074-.511-1.739-.915-3.173-.891-3.184.028-.011 1.8-1.075 3.94-2.37 2.142-1.291 3.9-2.349 3.91-2.354.014 0-.033.066-.098.15zm-3.025 8.882c.417.393.764.737.769.759.005.022-.544.637-1.215 1.362-.67.726-1.21 1.274-1.195 1.218.014-.055.21-.996.436-2.087.23-1.086.422-1.977.431-1.977.01 0 .357.326.774.725z"/></svg><svg viewBox="0 0 24 24" id="whatsapp" xmlns="http://www.w3.org/2000/svg"><path d="M10.617.034a12.039 12.039 0 00-8.63 5.308 11.946 11.946 0 00-1.945 5.453c-.07.704-.028 2.37.075 3.008.244 1.544.727 2.91 1.5 4.261l.267.46-.942 2.699A140.05 140.05 0 000 23.968c0 .029 2.466.038 6.717.029l6.713-.015.656-.122c2.587-.488 4.734-1.637 6.539-3.491a11.833 11.833 0 003.305-6.87c.093-.766.093-2.24 0-3.004a12.212 12.212 0 00-1.64-4.74c-.943-1.55-2.476-3.093-4.037-4.05a12.122 12.122 0 00-4.19-1.568c-.591-.103-.84-.122-1.876-.136-.656-.005-1.364.01-1.57.033zm2.813 1.961a9.567 9.567 0 013 .94 9.94 9.94 0 014.565 4.5c.47.929.77 1.82.975 2.919.117.638.117 2.647 0 3.285-.539 2.886-2.08 5.247-4.462 6.819-.867.573-2.213 1.15-3.235 1.384-1.045.244-1.125.244-6.539.235l-5.039-.014.666-1.92.67-1.914-.38-.573c-1.143-1.713-1.724-3.604-1.73-5.622a10.028 10.028 0 012.954-7.171c1.556-1.558 3.623-2.59 5.77-2.882.74-.098 2.049-.093 2.785.014z"/><path d="M7.89 5.12c-1.266.344-2.311 1.653-2.691 3.37-.14.63-.173 2.042-.07 2.708.267 1.695 1.251 3.356 2.962 5.022 1.552 1.507 3.08 2.38 4.631 2.652.544.093 1.72.093 2.358-.005 2.442-.361 4.055-1.934 3.853-3.75-.098-.882-.553-1.502-1.509-2.046-.722-.408-1.167-.591-1.59-.657-.716-.108-1.255.09-1.804.652l-.342.348-.31-.146c-1.167-.549-2.118-1.535-2.662-2.76l-.089-.201.319-.333c.197-.212.37-.456.464-.648.136-.291.145-.338.14-.85 0-.652-.093-.938-.571-1.806-.502-.901-1.074-1.404-1.791-1.568-.295-.07-1.008-.056-1.298.019zm1.02 1.954c.188.132.736 1.14.741 1.366.005.047-.201.3-.45.563-.248.268-.525.559-.61.648l-.15.164.113.399c.731 2.6 2.653 4.533 5.227 5.26l.492.142.633-.662.633-.657.257.108c.408.173 1.036.558 1.14.694.056.08.088.197.088.315-.009.568-.759 1.192-1.771 1.473-.324.09-.492.104-1.308.104-.89 0-.956-.005-1.355-.127-1.115-.347-2.203-1.07-3.356-2.234-1.167-1.173-1.838-2.248-2.138-3.416-.112-.427-.117-.517-.098-1.258.028-.91.122-1.375.384-1.93.183-.38.563-.82.816-.956.23-.122.539-.122.712.004z"/></svg></svg>